<?xml version="1.0" encoding="utf-8"?>
<!-- Generator: Adobe Illustrator 21.1.0, SVG Export Plug-In . SVG Version: 6.00 Build 0)  -->
<svg version="1.1" xmlns="http://www.w3.org/2000/svg" xmlns:xlink="http://www.w3.org/1999/xlink" x="0px" y="0px"
	 viewBox="0 0 1240 770" style="enable-background:new 0 0 1240 770;" xml:space="preserve">
<style type="text/css">
	.st0{fill:#64B5F6;stroke:#FFFFFF;stroke-width:0.75;stroke-linecap:round;stroke-linejoin:round;}
	.st1{fill:none;stroke:#FFFFFF;stroke-width:0.75;stroke-linecap:round;stroke-linejoin:round;}
</style>
<g id="Слой_1">
</g>
<g id="Слой_2_1_">
	<g>
		<path class="st0" d="M750.9,462.2l0.6-0.2l0.1,0.9l2.5-0.6h2.6h1.9l2.2-2.3l2.3-2.3l2-2.1l0.6,1.2l0.4,2.8h-1.6l-0.3,2.3l0.6,0.5
			l-1.4,0.7v1.4l-0.9,1.4v1.4l-0.6,0.7l-9.5-1.7l-1.2-3.5L750.9,462.2z"/>
		<path class="st1" d="M781.3,420.6l3.2,1.5l2.3-0.5l0.7-1.8l2.5-0.6l1.8-1.2l0.6-3.2l2.7-0.8l0.5-1.4l1.5,1.1l0.9,0.1h1.8l2.3,0.8
			l1,0.5l2.3-1.3l1.1,0.8l1-1.8h1.9l0.5-0.6l0.3-1.6l1.4-1.4l1.7,0.9l-0.3,1.2l1,0.2l-0.3,3.3l1.2,1.3l1.1-0.8l1.4-0.4l2-1.8
			l2.2,0.3h3.6l0.6,1.1l-1.8,0.4l-1.6,0.7l-3.6,0.5l-3.4,0.8l-1.8,1.7l0.7,1.7l0.4,1.9l-1.6,1.6l0.1,1.5l-0.9,1.4l-3-0.1l1.2,2.5
			l-2,1l-1.3,2.3l0.2,2.3l-1.2,1l-1.2-0.3l-2.4,0.5l-0.3,1h-2.3l-1.8,2.1v3.1l-4.1,1.5l-2.3-0.3l-0.6,0.8l-1.9-0.5l-3.2,0.6
			l-5.3-1.8l2.9-3.3l-0.3-2.3l-2.3-0.6l-0.3-2.3l-1-3l1.4-2.1l-1.4-0.6l0.9-2.8L781.3,420.6z"/>
		<path class="st0" d="M639.1,559.5l0.8,2.3l0.9,1.9l0.7,1l1.2,1.7l2.1-0.3l1.1-0.5l1.8,0.5l0.5-0.8l0.8-1.8l2-0.1l0.2-0.6h1.6
			l-0.3,1.1h3.9v2l0.6,1.2l-0.5,1.9l0.2,2l1.1,1.2l-0.2,3.8l0.8-0.3h1.4l2-0.5l1.5,0.2l0.3,1l-0.4,1.6l0.6,1.5l-0.5,1.2l0.3,1.1
			h-6.6l-0.1,10.4l2.1,2.7l2.1,2.1l-5.8,1.3l-7.7-0.5l-2.3-1.6l-12.9,0.1l-0.5,0.2l-1.9-1.5h-2.1l-1.9,0.6l-1.5,0.6l-0.3-2.1
			l0.4-2.9l1.1-3l0.2-1.4l1-2.9l0.8-1.3l1.8-2.1l1-1.4l0.3-2.3l-0.2-1.8l-0.9-1.1l-0.9-1.9l-0.8-1.9l0.2-0.7l1-1.3l-1-3.1l-0.6-2.1
			l-1.6-2l0.3-0.6l1.3-0.4h0.9l1.1-0.4L639.1,559.5z M626.8,558.9l-0.8,0.3l-0.9-2.3l1.3-1.4l1-0.5l1.2,1.1l-1.2,0.7l-0.5,0.8
			L626.8,558.9z"/>
		<path class="st1" d="M379.7,750.6l-3,0.3l-1.6-2l-1.9-0.1h-3.4v-12l1.2,2.4l1.6,4l4.1,3.3l4.5,1.4L379.7,750.6z M381.4,612.2
			l1.9,2.5l1.2-2.7l3.6,0.1l0.5,0.7l5.8,5.6l2.6,0.5l3.9,2.6l3.3,1.4l0.5,1.5l-3.1,5.4l3.2,1l3.6,0.6l2.5-0.6l2.9-2.7l0.5-3.1
			l1.6-0.7l1.6,2v2.8l-2.7,2l-2.1,1.5l-3.6,3.5l-4.2,4.9l-0.8,2.9l-0.9,3.8v3.8l-0.7,0.8l-0.3,2.4l-0.2,2l4,3.3l-0.4,2.7l2,1.7
			l-0.2,1.9l-3,5.1l-4.6,2.2l-6.3,0.9l-3.5-0.4l0.7,2.4l-0.6,3.1l0.6,2.1l-1.9,1.5l-3.3,0.6l-3-1.5l-1.2,1.1l0.4,4.2l2.1,1.3
			l1.7-1.3l0.9,2.3l-2.9,1.3l-2.5,2.7l-0.5,4.4l-0.7,2.3h-3l-2.5,2.3l-0.9,3.4l3.1,3.4l3,0.9l-1.1,4.2l-3.7,2.7l-2.1,5.7l-2.9,1.9
			l-1.3,2.3l1,5.2l2.1,3l-1.3-0.3l-2.9-0.8l-7.7-0.7l-1.3-3v-3.8l-2.1,0.3l-1.1-1.8l-0.3-5.2l2.4-2.1l1-3l-0.4-2.3l1.7-4l1.2-6
			l-0.3-2.6l1.4-0.9l-0.3-1.7l-1.5-0.9l1-1.8l-1.4-1.7l-0.7-5l1.3-0.9l-0.5-5.1l0.7-4.2l0.9-3.6l1.9-1.5l-1-3.9v-3.9l2.3-2.6v-3.3
			l1.8-3.7v-3.5l-0.8-0.7l-1.5-6.4l2-3.8l-0.3-3.5l1.1-3.3l2.1-3.3l2.3-2.3l-0.9-1.4l0.7-1.1v-5.8l3.4-1.7l1.1-3.6l-0.4-0.9l2.7-3.1
			L381.4,612.2z"/>
		<path class="st0" d="M641.2,367.4l-0.2,1.9h-1.8l0.6,1l-1.1,3l-0.6,0.8h-2.8l-1.6,1l-2.6-0.3l-4.6-1.2l-0.7-1.6l-3.1,0.8l-0.4,0.9
			l-1.9-0.6l-1.6-0.1l-1.4-0.8l0.5-1.1l-0.1-0.8l1-0.3l1.6,1.3l0.5-1.2l2.8,0.2l2.3-0.8l1.5,0.1l1,1l0.3-0.8l-0.5-3.1l1.1-0.6
			l1.1-2.3l2.3,1.5l1.8-2l1.1-0.4l2.5,1.5l1.5-0.3l1.5,0.9l-0.3,0.6L641.2,367.4z"/>
		<path class="st0" d="M1048.3,682l3.1,1.5l1.7-0.6l2.5-0.8l1.9,0.3l0.2,5l-1.1,1.5l-0.3,3.5l-1.1-1.2l-2.3,3l-0.6-0.2l-1.9-0.1
			l-2-3.7l-0.4-2.8l-1.8-3.7v-1.9L1048.3,682z M1042.5,584.7l1.1,2.5l2-1.2l1.1,1.4l1.5,1.3l-0.3,1.5l0.7,2.8l0.5,1.6l0.8,0.4
			l0.9,2.8l-0.3,1.7l1,2.3l3.4,1.7l2.3,1.6l2.1,1.5l-0.4,0.8l1.8,2.1l1.2,3.7l1.3-0.7l1.3,1.5l0.8-0.5l0.6,3.6l2.3,2.1l1.5,1.3
			l2.5,2.8l0.9,2.8v2l-0.2,2.3l1.5,3l-0.2,3.2l-0.6,1.7l-0.9,3.3v2.1l-0.6,2.7l-1.4,3.4l-2.3,1.8l-1.2,2.9l-1.1,1.9l-0.9,3.3
			l-1.2,1.9l-0.8,2.9l-0.4,2.5l0.2,1.2l-1.8,1.4l-3.6,0.1l-2.9,1.6l-1.5,1.6l-1.9,1.7l-2.6-1.8l-1.9-0.7l0.5-2.1l-1.7,0.8l-2.8,2.9
			l-2.7-1.1l-1.8-0.6l-1.8-0.3l-3.1-1.2l-2.1-2.5l-0.7-3l-0.7-2l-1.6-1.6l-3-0.5l1-1.9l-0.8-2.8l-1.5,2.7l-2.8,0.7l1.7-2.1l0.5-2.3
			l1.2-1.9l-0.3-2.8l-2.6,3.2l-2,1.3l-1.2,3l-2.5-1.6v-2l-2-2.7l-1.7-1.4l0.6-0.9l-4.1-2.3h-2.3l-3-1.8l-5.7,0.3l-4.1,1.3l-3.6,1.2
			l-3-0.3l-3.4,1.9l-2.7,0.9l-0.6,2l-1.2,1.5h-2.7l-2,0.3l-2.8-0.7l-2.3,0.4l-2.2,0.2l-1.9,2l-0.9-0.2l-1.6,1.1l-1.5,1.2l-2.3-0.1
			h-2.1l-3.4-2.4l-1.7-0.7v-2.2l1.6-0.5l0.6-0.9v-1.4l0.4-2.6l-0.3-2.3l-1.7-3.7l-0.5-2.1l0.1-2.1l-1.3-2.3v-1.1l-1.4-1.4l-0.4-2.8
			l-1.8-2.8l-0.4-1.5l1.4,1.5l-1.1-3.3l1.6,1l0.9,1.4v-1.8l-1.6-2.7l-0.3-1.1l-0.7-1l0.3-2l0.6-0.9l0.4-1.7l-0.3-2l1.3-2.4l0.2,2.6
			l1.3-2.3l2.6-1.1l1.5-1.5l2.3-1.2l1.4-0.3l0.9,0.4l2.5-1.2l1.9-0.4l0.5-0.7l0.8-0.3h1.8l3.3-1l1.7-1.5l0.8-1.8l1.8-1.7l0.1-1.3
			v-1.8l2.3-2.8l1.3,2.8l1.3-0.6l-1.1-1.6l1-1.6l1.4,0.7l0.4-2.5l1.7-1.6l0.8-1.3l1.6-0.6V586l1.4,0.4v-0.8l1.4-0.5l1.5-0.4l2.3,1.5
			l1.8,1.9h2l2,0.3l-0.7-1.8l1.5-2.6l1.4-0.9l-0.5-0.8l1.4-1.8l1.9-1.1l1.6,0.4l2.7-0.6v-1.6l-2.3-1.1l1.7-0.5l2.1,0.8l1.7,1.3
			l2.7,0.8l0.9-0.3l2,1l1.8-0.9l1.2,0.3l0.7-0.6l1.5,1.6l-0.9,1.7l-1.2,1.3h-1.1l0.4,1.3l-0.9,1.6l-1.1,1.6l0.2,0.9l2.5,1.8l2.4,1.1
			l1.6,1.1l2.3,1.9h0.9l1.7,0.9l0.5,1l3,1.1l2.1-1.1l0.6-1.8l0.6-1.5l0.4-1.8l1-2.6l-0.4-1.6l0.2-0.9l-0.4-1.8l0.4-2.4l0.6-0.6
			l-0.5-1.1l0.8-1.7l0.6-1.8v-0.9l1.2-1.2l0.9,1.6l0.2,2l0.8,0.4l0.1,1.4l1.2,1.6l0.2,1.8L1042.5,584.7z"/>
		<path class="st0" d="M730,404.2l0.9,1.1h1.4v0.6l1.3,2.3l-2.2-0.6l-1.6-1.9l-0.5-1.5L730,404.2z M737.5,398.1l1.4,0.3l0.6-1.1
			l1.9-1.7l1.7,2.3l1.6,3l1.5,0.2l1,1.1l-2.6,0.3l-0.6,3.2l-0.6,1.4l-1.2,0.9v2l-0.8,0.2l-2-2.1l1.1-2l-0.9-1.2l-1.2,0.3l-3.7,3
			v-2.8l-1.4-0.7l-1.3-1.1l1-1.3l-1.7-1.4l0.6-1l-1.2-0.7l-0.6-1.1l0.8-0.7l2.3,1.2l1.7,0.3l0.4-0.5l-1.6-2.3l0.8-0.6l0.9,0.1
			L737.5,398.1z"/>
		<path class="st0" d="M647.5,382.3h1.2l-0.8,1.9l1.5,1.7L649,388l-0.7,0.2l-0.6,0.4l-1,1l-0.5,2.3l-2.8-1.6l-1.2-1.8l-1.2-1
			l-1.5-1.6l-0.7-1.4l-1.6-2.1l0.7-1.8l1.1,1l0.7-0.9h1.5l2.7,0.7h2.3L647.5,382.3z"/>
		<path class="st0" d="M881.2,469.7v2.4l-1.1-0.5l0.2,2.7l-0.9-1.8l-0.2-1.7l-0.6-1.6l-1.3-2l-2.9-0.1l0.3,1.4l-1,1.9l-1.4-0.7
			l-0.5,0.6l-0.9-0.4l-1.2-0.3l-0.7-2.9l-1.1-2.6l0.5-2.1l-1.9-0.9l0.7-1.3l2-1.3l-2.3-1.8l1.1-2.3l2.5,1.5l1.5,0.2l0.3,2.4l3,0.5h3
			l1.8,0.6l-1.5,2.9l-1.4,0.2l-1,2l1.7,1.8l0.5-2.3h0.9L881.2,469.7z"/>
		<path class="st0" d="M597.9,351.6l2.3,0.4l2.9-1.1l2,2.3l1.8,1.2l-0.4,3.4l-0.8,0.2l-0.3,2.7l-2.8-2.3l-1.6,0.4l-2.3-2.3l-1.5-2
			h-1.5l-0.5-1.8L597.9,351.6z"/>
		<path class="st0" d="M578.3,510.4l-2.2-0.8l-1.5,0.1l-1.1,0.8l-1.4-0.7l-0.6-1.1l-1.4-0.7l-0.2-1.8l0.9-1.4v-1.1l2.5-2.7l0.5-2.3
			l0.9-0.8l1.5,0.4l1.3-0.6l0.4-0.8l2.5-1.5l0.6-1l3-1.4l1.8-0.5l0.8,0.6h2l-0.3,1.6l0.4,1.5l1.8,2.1v1.6l3.7,0.7v2.3l-0.7,1
			l-1.5,0.3l-0.6,1.4l-1.1,0.4l-2.7-0.1l-1.5-0.3l-1,0.5l-1.4-0.2l-5.5,0.1v1.8L578.3,510.4z"/>
		<path class="st0" d="M659.2,385.1l0.9,1.8l1.2-0.3l2.4,0.7l4.6,0.2l1.6-1.1l3.7-1l2.3,1.6l1.9,0.5l-1.7,1.8l-1.2,3.1l1,2.4
			l-2.7-0.6l-3.2,1.3v2.1l-2.9,0.4l-2.3-1.5l-2.5,1.2l-2.3-0.1l-0.2-2.8l-1.6-1.4l0.5-0.6l-0.3-0.5l0.5-1.4l1.2-1.3l-1.5-1.9
			l-0.3-1.6L659.2,385.1z"/>
		<path class="st1" d="M680.4,555.1l-0.2-3.8l-0.8-1.4l1.9,0.3l1-1.8l1.7,0.2l0.2,1.2l0.7,0.7v1l-0.8,0.6l-1.2,1.7l-1.1,1.1
			L680.4,555.1z"/>
		<path class="st0" d="M595.9,521.2l-2.6,0.4l-0.8-2.3l0.1-7.3l-0.6-0.6v-1.6l-1.1-1.1l-1-0.9l0.4-1.7l1.1-0.4l0.6-1.4l1.5-0.3
			l0.7-1l1.1-0.9h1.1l2.3,1.8l-0.1,1.1l0.7,1.9l-0.6,1.3l0.3,0.9l-1.5,2l-1,1l-0.6,2v2L595.9,521.2z"/>
		<path class="st1" d="M949.4,526.7l1.2-1.2l2.7-1.7l-0.1,1.6l-0.2,2h-1.5l-0.7,1.1L949.4,526.7z"/>
		<path class="st1" d="M388.1,612.2l-3.6-0.1l-1.2,2.7l-1.9-2.5l-4.2-0.8l-2.6,3l-2.3,0.5l-1.2-4.6l-1.7-3.8l1-3.3l-1.7-1.4
			l-0.4-2.3l-1.6-2.3l2-3.6l-1.4-2.8l0.7-1.1l-0.6-1.2l1.2-1.6v-2.8l0.1-2.3l0.7-1.1l-2.7-5.2l2.3,0.3h1.6l0.7-1l2.8-1.3l1.7-1.2
			l4.2-0.6l-0.3,2.3l0.4,1.2l-0.3,2.1l3.4,2.9l3.6,0.5l1.2,1.2l2.1,0.6l1.3,0.9h2.1l1.8,1l0.1,1.9l0.6,0.9v1.4h-0.9l1.2,3.8l6.1,0.1
			l-0.5,1.9l0.3,1.3l1.7,0.9l0.8,2.1l-0.6,2.6l-0.9,1.5l0.3,1.9l-1,0.7v-1l-3-1.7h-2.9l-5.5,1l-1.5,3v1.8l-1.2,4.1L388.1,612.2z"/>
		<path class="st1" d="M878.1,449.8l1.3,1.1l-0.2,2.2h-2.6l-2.7-0.2l-2,0.6l-2.9-1.3v-0.7l2.1-2.7l1.7-0.9l2.3,0.8h1.7L878.1,449.8z
			"/>
		<path class="st1" d="M668.7,600.4l0.6,0.6l1,1.9l3.6,3.7l1.4,0.4v1.2l0.9,2.1l2.4,0.5l2,1.5l-4.5,2.5l-2.8,2.6l-1.1,2.3l-0.9,1.3
			l-1.7,0.3l-0.6,1.7l-0.3,1.1l-2,0.8l-2.6-0.2l-1.5-1l-1.3-0.4l-1.5,0.8l-0.8,1.7l-1.5,1.1l-1.6,1.6l-2.3,0.4l-0.7-1.2l0.3-2.1
			l-1.9-3.3l-0.9-0.5v-10l3.1-0.1v-12h2.3l4.9-1.2l1.2,1.4l2-1.3h1l1.8-0.7l0.6,0.3L668.7,600.4z"/>
		<path class="st1" d="M635.8,517.6l2.6-0.3l0.6-0.8h0.5l0.8,0.7l4-1.2l1.3-1.2l1.7-1.1l-0.3-1.1l0.9-0.3l3.1,0.2l3-1.5l2.3-3.5
			l1.6-1.3l2-0.6l0.4,1.4l1.8,2v1.3l-0.5,1.3l0.2,1l1.1,0.9l2.3,1.4l1.7,1.3v1l2.1,1.7l1.3,1.4l0.8,1.9l2.3,1.2l0.5,1l-1.1,0.3h-2
			l-2.3-0.3l-1.2,0.3l-0.5,0.8h-1l-1.2-0.7l-3.5,1.6l-1.4-0.3l-0.4,0.3l-0.9,1.9l-2.3-0.6l-2.3-0.3l-2-1.2l-2.6-1.1l-1.7,1l-1.2,1.6
			l-0.3,2.3l-2-0.2l-2.1-0.5l-1.9,1.7l-1.7,2.9l-0.3-0.9l-0.1-1.4l-1.5-1l-1.2-1.6l-0.3-1.1l-1.5-1.7l0.3-0.9l-0.3-1.3l0.3-2.4
			l0.8-0.6L635.8,517.6z"/>
		<path class="st0" d="M628.6,556l-1.2-1.1l-1,0.5l-1.3,1.4l-2.6-3.3l2.3-1.7l-1.2-2.1l1.1-0.8l2.1-0.4l0.3-1.4l1.7,1.5l2.8,0.1
			l1-1.5l0.4-2.1l-0.3-2.5l-1.5-1.8l1.4-3.6l-0.8-0.6l-2.3,0.3l-0.9-1.6l0.2-1.4l4,0.1l2.6,0.8l2.5,0.7l0.2-1.7l1.7-2.9l1.9-1.7
			l2.1,0.5l2,0.2l-0.2,1.9l-0.9,1.7l-0.6,2l-0.4,2.8l0.2,1.8l-0.5,1.1v1.2l-0.4,1l-2.1,1.5l-1.5,1.6l-1.4,3.1v2.6l-0.8,1l-1.8,1.5
			l-1.9,2l-1.2-0.6l-0.2-0.9h-1.7l-1.1,1.2L628.6,556z"/>
		<path class="st0" d="M617.8,370.2l0.1,0.8l-0.5,1.1l1.4,0.8l1.6,0.1l-0.3,1.9l-1.4,0.8l-2.3-0.6l-0.7,1.8l-1.5,0.1l-0.6-0.7
			L612,378l-1.5,0.2l-1.4-1l-1.1-2l-1.5,0.7v-2.1l2.3-2.6v-1.2l1.5,0.4l0.9-0.8h2.7l0.6-1L617.8,370.2z"/>
		<path class="st1" d="M578.3,525.2h-1.4l-2.3-0.6h-2l-3.8,0.6l-2.3,0.9l-3.1,1.2h-0.6l0.2-2.6l0.3-0.4V523l-1.3-1.3l-1-0.2
			l-0.9-0.9l0.7-1.4l-0.3-1.5l0.1-0.9h0.5l0.2-1.4l-0.3-0.6l0.3-0.4l1.2-0.4l-0.8-2.6l-0.7-1.3l0.3-1.1l0.6-0.2l0.4-0.3l0.9,0.5h2.4
			l0.6-0.9h0.6l0.9-0.4l0.5,1.4l0.7-0.4l1.3-0.5l1.4,0.7l0.6,1.1l1.4,0.7l1.1-0.8l1.5-0.1l2.2,0.8l0.8,4.6l-1.3,2.7l-0.8,3.6
			l1.4,2.7L578.3,525.2z"/>
		<path class="st1" d="M369.8,736.9v12h3.4l1.9,0.1l-1.1,2.3l-2.7,1.7l-1.6-0.2l-1.9-0.5l-2.3-1.7l-3.3-0.8l-4-3.1l-3.2-2.9
			l-4.4-5.9l2.6,1.1l4.5,3.5l4.2,1.9l1.6-2.4l1-3.6l2.9-2.2L369.8,736.9z M371.1,610.3l1.2,4.6l2.3-0.5l0.4,0.9l-1.1,3.6l-3.4,1.7
			v5.8l-0.7,1.1l0.9,1.4l-2.3,2.3l-2.1,3.3l-1.1,3.3l0.3,3.5l-2,3.8l1.5,6.4l0.8,0.7v3.5l-1.8,3.7v3.3l-2.3,2.6v3.6l1,3.9l-1.9,1.5
			L360,678l-0.7,4.2l0.5,5.1l-1.3,0.9l0.7,5l1.4,1.7l-1,1.8l1.5,0.9l0.3,1.7l-1.4,0.9l0.3,2.6l-1.2,6l-1.7,4l0.4,2.3l-1,3l-2.4,2.1
			l0.3,5.2l1.1,1.8l2.1-0.3v3.8l1.3,3l7.7,0.7l2.9,0.8h-2.8l-1.5,1.3l-2.9,1.9l-0.5,5l-1.3,0.1l-3.6-1.7l-3.6-3.7l0,0l-3.8-3l-1-3.3
			l0.9-3l-1.6-3.3l-0.4-8.3l1.3-4.6l3.3-3.6l-4.8-1.3l3-4l1.1-7.4l3.5,1.5l1.7-9l-2.1-1.1l-1,5.4l-2-0.6l1-6.1l1.1-7.7l1.5-2.8
			l-0.9-4l-0.3-4.6l1.3-0.1l1.9-6.3l2.3-6.1l1.3-5.6l-0.7-5.6l0.9-3l-0.4-4.5l1.8-4.4l0.6-6.9l1-7.2l1-7.6l-0.2-5.5l-0.6-4.6
			l1.6-0.9l0.9-1.7l1.5,2.3l0.4,2.3l1.7,1.4l-1,3.3L371.1,610.3z"/>
		<path class="st1" d="M628.8,533.7l-0.4-0.2l-1.9,0.4l-1.9-0.4l-1.5,0.2H618l0.5-2.5l-1.2-2.1l-1.5-0.6l-0.6-1.4l-0.8-0.5v-0.9
			l0.8-2.3l1.5-3h0.9l1.9-1.8h1.2l1.8,1.3l2.2-1.1l0.3-1.3l0.7-1.3l0.5-1.6l1.7-1.3l0.6-2.3l0.7-0.7l0.5-1.7l0.8-2.1l2.7-2.5
			l0.2-1.1l0.3-0.6l-1.2-1.3v-1l0.9-0.2l1.2,2.1l0.2,2.1v2.1l1.7,2.9h-1.8l-0.9,0.2l-1.5-0.3l-0.7,1.5l1.9,1.9l1.4,0.6l0.5,1.3
			l1,2.2l-0.5,0.9l-1.6,3.2l-0.8,0.6l-0.3,2.4l0.3,1.3l-0.3,0.9l1.5,1.7l0.3,1.1l1.2,1.6l1.5,1l0.1,1.4l0.3,0.9l-0.2,1.7l-2.5-0.7
			l-2.6-0.8L628.8,533.7z"/>
		<path class="st1" d="M324.4,515l-1.7-0.7l-0.6-0.7l0.4-0.6v-0.7l-0.9-0.8l-1.2-0.6l-1.1-0.4l-0.2-0.9l-0.8-0.6l0.2,0.9l-0.7,0.7
			l-0.7-0.9l-1-0.3l-0.4-0.6v-1l0.4-1l-0.9-0.5l0.7-0.6l0.5-0.4l2.1,0.9l0.7-0.4l1,0.3l0.5,0.6l0.9,0.2l0.8-0.7l0.8,1.7l1.2,1.3
			l1.5,1.4l-1.2,0.3v1.3l0.6,0.5l-0.5,0.4l0.1,0.6l-0.3,0.6L324.4,515z"/>
		<path class="st1" d="M326.6,465.8l2.7,0.3h2.5l3,1.2l1.3,1.2l3-0.4l1.1,0.8l2.7,2.1l2,1.5h1l1.9,0.7l-0.2,0.9l2.3,0.1l2.3,1.4
			l-0.4,0.8l-2.1,0.4l-2.1,0.2l-2.2-0.3l-4.6,0.3l2.1-1.9l-1.3-0.9l-2.1-0.2l-1.1-1l-0.8-1.9l-1.5,0.2l-3-0.9l-0.9-0.7l-4.2-0.7
			l-1.1-0.7l1.2-0.9l-3.1-0.2l-2.3,1.8h-1.3l-0.5,0.8l-1.6,0.4l-1.4-0.3l1.7-1.1l0.7-1.2l1.4-0.8l1.6-0.7l2.3-0.3L326.6,465.8z"/>
		<path class="st0" d="M618.8,332.4v2.1l3.2,1.3v1.8l3.2-1l1.8-1.5l3.6,2.1l1.5,1.7l0.7,2.7l-0.9,1.4l1.1,1.9l0.8,2.8l-0.3,1.8
			l1.3,3.2l-1.4,0.5l-0.8-0.6l-0.8,0.9l-2.3,1l-1.2,1.2l-2.3,1.1l0.6,1.5l0.3,2.1l1.6,1.2l1.8,2.1l-1.1,2.3l-1.1,0.6l0.5,3.1
			l-0.3,0.8l-1-1l-1.5-0.1l-2.3,0.8l-2.8-0.2l-0.5,1.2l-1.6-1.3l-1,0.3l-3.4-1.4l-0.6,1h-2.7l0.4-3.4l1.6-3.3l-4.6-0.9l-1.5-1.3
			l0.2-2.1l-0.6-1.1l0.4-3.4l-0.6-5.3h2.1l0.8-1.9l0.8-4.8l-0.6-1.8l0.6-1.1l2.7-0.3l0.6,1.2l2.1-2.7l-0.7-2l-0.1-3.1l2.3,0.7
			L618.8,332.4z"/>
		<path class="st0" d="M723.9,500.6l0.7,1v1.3l-1.8,0.8l1.4,0.9l-1.2,1.7l-0.7-0.6l-0.8,0.2h-1.8v-1l-0.2-0.9l1.1-1.5l1.1-1.4
			l1.4,0.3L723.9,500.6z"/>
		<path class="st0" d="M627.6,328.9l-1.9,4.5l-3.3-3.1l-0.4-2.3l4.6-1.9L627.6,328.9z M622,324.1l-0.8,2.1l-0.9-0.6l-2.3,4.1
			l0.9,2.7l-2,0.8l-2.3-0.7l-1.3-3.1v-5.8l0.5-1.6l0.9-1.7l2.8-0.4l1.1-1.6l2.6-1.7v3l-0.9,1.9l0.4,1.6L622,324.1z"/>
		<path class="st1" d="M360,477.6l0.4-0.6h2.5l1.9,0.9h0.8l0.6,1.2h1.7v1l1.4,0.1l1.6,1.2l-1.2,1.4l-1.5-0.7l-1.5,0.1l-1-0.2
			l-0.6,0.6l-1.2,0.2l-0.5-0.8l-1.1,0.5l-1.3,2.3l-0.8-0.5l-0.2-0.9v-0.9l-0.8-1l0.8-0.6l0.3-1.3L360,477.6z"/>
		<path class="st0" d="M625.4,464.8l-10.9,6.6l-9.2,6.6l-4.5,1.5l-3.5,0.3v-2.1l-1.5-0.6l-2-1l-0.7-1.6l-10.7-7.4l-10.7-7.5
			l-11.9-8.6v-0.7v-4.4l5.1-2.7l3.2-0.6l2.6-1l1.2-1.8l3.7-1.5l0.1-2.7l1.8-0.3l1.4-1.4l4.2-0.6l0.6-1.5l-0.8-0.8l-1.1-4l-0.2-2.3
			l-1.2-2.5l3-2.1l3.4-0.7l2-1.6l3-1.2l5.4-0.7l5.2-0.3l1.6,0.6l3-1.5h3.4l1.3,0.9l2.2-0.2l-0.6,2l0.5,3.7l-0.7,3.2l-2,2.1l0.3,2.9
			l2.6,2.3v0.9l1.9,1.5l1.4,6.6l1,3.2l0.2,1.7l-0.6,2.9l0.2,1.6l-0.4,1.9l0.3,2.3l-1.3,1.5l1.9,2.6l0.1,1.5l1.1,1.9l1.5-0.6l2.5,1.6
			L625.4,464.8z"/>
		<path class="st0" d="M332.8,551.7l1.7-2.3l-0.7-1.4l-1.2,1.5l-1.9-1.4l0.6-0.9l-0.5-2.9l1.1-0.5l0.6-2l1.2-2l-0.2-1.3l1.7-0.7
			l2.2-1.2l3.2,1.8h0.6l0.8,1.4l2.7,0.4l0.9-0.5l1.6,1l1.4,0.7l0.4,2.3l-1,2.1l-3.5,3.3l-3.8,1.2l-1.9,2.7l-0.6,2.1l-1.8,1.3
			l-1.3-1.6l-1.3-0.3l-1.3,0.3v-1.2l0.9-0.7L332.8,551.7z"/>
		<path class="st0" d="M393.4,732.9l3.8-3l2.7,1.3l1.9-2l2.5,2.3l-0.9,1.8l-4.3,1.5l-1.4-1.8l-2.7,2.3L393.4,732.9z"/>
		<path class="st0" d="M617.7,394.1l-1.1,3.3l-1.4-0.9l-0.7-2.9l0.6-1.6l2.1-1.6L617.7,394.1z M598.7,356.4l2.3,2.3l1.6-0.4l2.8,2.3
			l0.7,0.4h0.9l1.5,1.3l4.6,0.9l-1.6,3.3l-0.4,3.4l-0.9,0.8l-1.5-0.4v1.2l-2.3,2.6v2.1l1.5-0.7l1.1,2l-0.1,1.3l0.9,1.7l-1.1,1.4
			l0.8,3.4l1.7,0.6l-0.4,1.9l-2.9,2.4l-6.3-1.2l-4.6,1.4l-0.4,2.6l-3.7,0.6l-3.6-1.9l-1.2,0.9l-5.8-2l-1.3-1.7l1.5-2.7l0.6-8.9
			l-3.2-4.9l-2.3-2.3l-4.8-1.8l-0.3-3.5l4.1-1l5.3,1.2l-1-5.5l3,2.1l7.4-3.8l0.9-4.1l2.8-1l0.5,1.8h1.5L598.7,356.4z"/>
		<path class="st0" d="M622.5,553.5l-3.3-3.2l-2.1-2.6l-1.9-3.3v-1l0.7-1l0.8-2.3l0.6-2.3l1.1-0.2h4.6v-3.9l1.5-0.2l1.9,0.4l1.9-0.4
			l0.4,0.2l-0.2,1.4l0.9,1.6l2.3-0.3l0.8,0.6l-1.4,3.6l1.5,1.8l0.3,2.5l-0.4,2.1l-1,1.5l-2.8-0.1l-1.7-1.5l-0.3,1.4l-2.1,0.4
			l-1.1,0.8l1.2,2.1L622.5,553.5z"/>
		<path class="st0" d="M569.4,334.7l-1.7,3.7l-2.3-1.1h-2l0.6-2.9l-0.6-2.9l2.7-0.2L569.4,334.7z M577.8,311.3l-3.4,6.5l3.2-0.8h3.5
			l-0.8,4.8l-2.8,5.1l3.3,0.4l0.3,0.6l2.8,6.6l2.2,0.9l2,6.1l0.9,2.1l3.9,1l-0.4,3.3l-1.6,1.5l1.3,2.6l-2.8,2.6h-4.2l-5.4,1.4
			l-1.5-1l-2.1,2.3l-2.9-0.6l-2.3,1.9l-1.7-1l4.6-5.2l2.8-1.1l0,0l-5-0.9l-0.9-2l3.3-1.6l-1.7-2.8l0.6-3.5l4.6,0.5l0,0l0.5-3.1
			l-2.1-3.3l0,0l-3.9-1l-0.8-1.5l1.2-2.5l-1-1.5l-1.7,2.7l-0.2-5.4l-1.6-2.9l1.2-6.1l2.5-4.9l2.5,0.5L577.8,311.3z"/>
		<path class="st0" d="M719.1,396.7l0.5-1.8l-0.8-2.9l-1.8-1.6l-1.8-0.5l-1.2-1.3l0.4-0.5l2.7,0.7l4.6,0.7l4.3,2.1l0.6,0.8l1.9-0.7
			l3,0.9l1,1.8l2,1l-0.8,0.6l1.6,2.3l-0.4,0.5l-1.7-0.3l-2.3-1.2l-0.8,0.7l-4.4,0.6l-3-2.1L719.1,396.7z"/>
		<path class="st1" d="M420.8,533.1l-1.2,1.2l-1.5,0.2l-0.4-0.9l-0.7-0.1l-1,0.9l-1.4-0.6l0.8-1.3l0.3-1.4l0.6-1.4l-1.2-1.9
			l-0.3-2.2l1.7-2.7l1.1,0.3l2.3,0.7l3.4,2.7l0.5,1.3l-1.9,2.9L420.8,533.1z"/>
		<path class="st1" d="M617.5,537.8l-0.6-0.5l1.1-3.5h5.1v3.8h-4.6L617.5,537.8z"/>
		<path class="st0" d="M539.4,506.1l-1.7-1.3l-1.3-0.2l-0.7-0.9v-0.5l-1-0.7l-0.2-0.7l1.7-0.5h1.1l0.9-0.4l5.9,0.1v1.1l-0.3,0.3
			l0.3,1.1l-0.5,0.4h-0.7l-0.8,0.6h-1L539.4,506.1z"/>
		<path class="st1" d="M397.9,514.5l2.1,1.2l2,2.1v1.6h1.2l1.7,1.5l1.2,1.1l-0.5,2.8l-1.9,0.8l0.2,0.7l-0.6,1.6l1.4,2.3h1l0.4,1.8
			l1.9,2.7h-0.8l-1.8-0.3l-1,0.8l-1.4,0.6l-1,0.1l-0.3,0.6l-1.6-0.2l-2-1.5l-0.2-1.5l-0.8-1.6l0.5-2.7l0.9-1.1l-0.7-1.5l-1.1-0.5
			l0.4-1.4l-0.7-0.7l-1.7,0.1l-2.1-2.3l0.9-0.9v-1.5l2-0.5l0.8-0.6l-1.1-1.2l0.3-1.2L397.9,514.5z"/>
		<path class="st1" d="M310.6,499.7l-0.6-1l-1-0.3l0.2-1.3l-0.4-0.3l-0.6-0.2l-1.4,0.4v-0.4l-1-0.5l-0.7-0.6l-0.9-0.3l0.6-0.8
			l-0.3-0.6l0.2-0.6l1.5-0.9l1.4-1.2l0.3,0.1l0.7-0.6h0.9l0.3,0.3l0.5-0.2l1.5,0.3h1.5l1-0.4l0.4-0.4l1,0.2l0.8,0.2h0.8l0.6-0.3
			l1.5,0.5h0.5l1,0.6l0.9,0.7l1.2,0.5l0.8,0.9h-1.1l-0.4,0.4l-1.1,0.4h-0.8l-0.7,0.4l-0.6-0.1l-0.6-0.5h-0.3l-0.4,0.8h-0.3v0.7
			l-1.1,0.9l-0.6,0.4l-0.3,0.4l-0.9-0.6l-0.7,0.9H313h-0.7v1.6h-0.5l-0.4,0.7L310.6,499.7z"/>
		<path class="st0" d="M647.1,377.6l0.8,1.8l1,1.3l-1.2,1.7l-1.4-1h-2.3l-2.7-0.7h-1.5l-0.7,0.9l-1.1-1l-0.7,1.8l1.6,2.1l0.7,1.4
			l1.5,1.6l1.2,1l1.2,1.8l2.8,1.6l-0.3,0.7l-2.9-1.4l-1.8-1.6l-2.9-1.3l-2.7-3.2l0.6-0.3l-1.5-1.8v-1.5l-2-0.7l-1,1.9l-0.9-1.5v-1.6
			l0,0l2.3,0.2l0.6-0.8l1.1,0.7h1.2v-1.3l1.1-0.5l0.3-1.8l2.5-1.2l1,0.6l2.3,2l2.6,0.9L647.1,377.6z"/>
		<path class="st1" d="M355.4,476.9l1.9,0.1l2.7,0.5l0.3,1.8l-0.3,1.3l-0.8,0.6l0.8,1v0.9l-2.1-0.6l-1.5,0.2l-1.9-0.2l-1.5,0.6
			l-1.7-1l0.3-1.1l2.9,0.5l2.3,0.3l1.1-0.7l-1.5-1.4v-1.3l-2-0.5L355.4,476.9z"/>
		<path class="st0" d="M567.7,338.5l0.5,3.8l-2.3,4.6l-5.6,3l-4.5-0.8l2.6-5.4l-1.7-5.4l4.3-4.2l2.3-2.6l0.6,2.9l-0.6,2.9h2
			L567.7,338.5z"/>
		<path class="st0" d="M700.6,431.8l-0.6,1.2l-1.2-0.5l-0.6,2.5l0.8,0.4l-0.8,0.5l-0.1,1l1.5-0.5v1.4l-1.6,5.8l-2.1-6.3l0.9-1.2
			l-0.2-0.2l0.8-1.7l0.6-2.8l0.5-0.9h1.2l0.3-0.6h0.9v1.5l-0.4,0.6L700.6,431.8z"/>
		<path class="st0" d="M758.3,414.5l2.8-0.8l2.3-2.3h2.1l1.4-0.7l2.3,0.4l3.5,2l2.5,0.4l3.6,3.5l2.3,0.1l0.3,3.3l-1.3,4.8l-0.9,2.8
			l1.4,0.6l-1.4,2.1l1,3l0.3,2.3l2.3,0.6l0.3,2.3l-2.9,3.3l1.6,1.9l1.3,2.2l3,1.6v3.1l1.5,0.6l0.3,1.6l-4.6,1.8l-1.2,4.1l-6-1.1
			l-3.5-0.8l-3.6-0.5l-1.4-4.3l-1.5-0.6l-2.4,0.6l-3.2,1.7l-3.9-1.2l-3.1-2.5l-3-1l-2-3.4l-2.3-4.8l-1.7,0.6l-2-1.2l-1.2,1.4
			l-1.8-1.9v-2h-1l0.5-2.7l-1.6-2.8l-3.9-2.1l-2.3-3.6l0.7-3l1.6-1.3l-0.3-2.3l-2.1-1.2l-2.1-4.6l-1.7-3.2l0.6-1.2l-1-4.6l2.2-1.2
			l0.5,1.5l1.6,1.9l2.2,0.5h1.2l3.7-3l1.2-0.3l0.9,1.2l-1.1,2l2,2.1l0.8-0.2l1,3l3,0.8l2.3,2l4.6,0.7l5-1L758.3,414.5z"/>
		<path class="st0" d="M541.4,257.2l-0.7,5.1l3.6,5.2l-4.2,5.6l-9.2,5l-2.7,1.3l-4.2-1.1l-8.8-2.3l3.1-3.2l-6.9-3.6l5.6-1.5
			l-0.1-2.3l-6.5-1.5l2.1-5.1l4.8-1.2l4.9,5.3l4.8-4.2l4,2.3l5.2-4.2L541.4,257.2z"/>
		<path class="st0" d="M636.6,410.4l-1.1,3.1l0.5,1.2l-0.7,2l-2.3-1.5l-1.6-0.4l-4.4-2l0.4-2.1l3.7,0.4l3.2-0.4L636.6,410.4z
			 M616.6,398.1l1.9,3l-0.4,5.4l-1.4-0.3l-1.3,1.4l-1.2-1.1l-0.1-5l-0.7-2.3l1.7,0.2L616.6,398.1z M626.6,373.7l4.6,1.2l-0.3,2.3
			l0.8,1.9l-2.5-0.6l-2.6,1.6l0.2,2.3l-0.4,1.3l1,2.3l3,2.3l1.6,3.6l3.5,3.4h2.5l0.8,0.9l-0.9,0.8l2.8,1.5l2.3,1.3l2.7,2.2l0.3,0.8
			l-0.6,1.5l-1.8-1.9l-2.8-0.7l-1.3,2.7l2.3,1.5l-0.4,2.1l-1.3,0.2l-1.9,3.2l-1.3,0.3v-1.2l0.6-2.2l0.7-0.9l-1.2-2.3l-1-2.1
			l-1.3-0.5l-0.9-1.8l-2-0.8l-1.4-1.7l-2.3-0.3l-2.5-1.9l-2.9-2.8l-2.2-2.5l-1-4.3l-1.6-0.5l-2.6-1.5l-1.5,0.6l-1.8,2l-1.3,0.3
			l0.4-1.9l-1.7-0.6l-0.8-3.4l1.1-1.4l-0.9-1.7l0.1-1.3l1.4,1l1.5-0.2l1.8-1.5l0.6,0.7l1.5-0.1l0.7-1.8l2.3,0.6l1.4-0.8l0.3-1.9
			l1.9,0.6l0.4-0.9l3.1-0.8L626.6,373.7z"/>
		<path class="st1" d="M341.5,481.7l2.1,0.3l1.7,0.8l0.5,0.9h-2.3l-1,0.6l-1.8-0.5l-1.8-1.2l0.4-0.8l1.3-0.2L341.5,481.7z"/>
		<path class="st0" d="M700.1,433l0.6-1.2l3.5,1.5l6.2-4l1.3,4.6l-0.6,0.6l-6.3,1.9l3.2,3.7l-1.1,0.6l-0.5,1.2l-2.3,0.5l-0.8,1.3
			l-1.4,1.1l-3.5-0.6v-0.5l1.6-5.8v-1.4l0.5-1.1L700.1,433z"/>
		<path class="st0" d="M812.3,393.7l0.7-1.9l2.1-0.6l5.2,1.5l0.5-2.5l1.8-0.9l4.6,1.8l1.2-0.5h5.3l4.6,0.5l1.6,1.5l2,0.6l-0.4,1
			l-5,2.3l-1.1,1.7l-4.1,0.5l-1.2,2.7l-3.4-0.6l-2.2,0.8l-3,1.9l0.4,1l-0.9,0.9l-6,0.6l-3.9-1.3l-3.4,0.3l0.3-2.3l3.4,0.7l1.2-1.3
			l2.3,0.4l4.1-3l-3.8-2.3l-2.3,1.1l-2.3-1.6l2.7-2.7L812.3,393.7z"/>
		<path class="st0" d="M915.5,507.3l-1.3-1.7l-1.6-3.3l-0.8-3.9l2-2.7l4.1-0.6l3,0.5l2.6,1.3l1.4-2.3l2.8,1.2l0.7,2.2l-0.4,3.9
			l-5.3,2.5l1.4,2l-3.3,0.2l-2.7,1.3L915.5,507.3z"/>
		<path class="st0" d="M653.2,394.6l-0.1,0.9h-0.4l-0.2-1.5l-0.8-0.4l-0.7-1.2l0.6-1l0.8-0.3l0.4-1.4l0.6-0.3l0.5,0.6l0.6,0.3
			l0.4,0.7l0.5,0.2l0.6,0.8h0.5l-0.4,1.1l-0.4,0.5v0.3L655,394L653.2,394.6z"/>
		<path class="st0" d="M739.4,441.9l0.6,1.6l-0.3,0.8l1,2.7h-2.3l-0.8-1.7l-2.8-0.3l2.3-3.5L739.4,441.9z"/>
		<path class="st0" d="M812.3,393.7l-1.8,0.8l-4.2,3l-1.4,3h-1.2l-0.9-2l-4-0.1l-0.6-3.5h-1.5l0.2-4.3l-3.8-3.2l-5.4,0.3l-3.7,0.6
			l-3-4l-2.6-1.7l-4.9-3.2l-0.6-0.4l-8.2,2.7l0.1,16l-1.6,0.2l-2.3-3.3l-2.1-1.2l-3.6,0.9l-1.4,1.4l-0.2-1l0.8-1.8l-0.6-1.5
			l-3.7-1.5l-1.4-3.9l-1.7-1.1v-1.5l3.1,0.4l0.1-3.3l2.7-0.7l2.8,0.7l0.6-4.4l-0.6-2.8l-3.2,0.2l-2.7-1.1l-3.7,2l-3,1l-1.6-0.7
			l0.3-2.3l-2-3.1l-2.3,0.1l-2.7-3.2l1.8-3.6l-0.9-1l2.5-5.4l3.3,2.9l0.4-3.6l6.5-5.5l5-0.1l6.9,3.5l3.7,2l3.4-2.1h5l4.1,2.6
			l0.9-1.5l4.5,0.2l0.8-2.3l-5.1-3.5l3-2.5l-0.6-1.4l3-1.4l-2.3-3.6l1.5-1.8L794,336l1.5-1.3l7.9-2l2.8-2.3l5.7,1.2l1,5.7l3.3-1.3
			l4.1,1.8l-0.3,2.9l3-0.3l7.9-5.1L830,337l4,4.1l7.1,13.1l1.7-2.6l4.4,2.9l4.6-1.3l1.7,0.9l1.5,2.9l2.3,0.9l1.4,2.1l4.1-0.6l1.7,3
			l-2.3,3.2l-2.6,0.5l-0.1,4.6l-1.8,2.1l-6.3-1.5l-2.3,8.2l-1.6,1l-6.3,1.8l2.8,7.6l-2.2,1.1l0.3,2.4l-2-0.6l-1.6-1.5l-4.6-0.5h-5.3
			l-1.2,0.5l-4.6-1.8l-1.8,0.9l-0.5,2.5l-5.2-1.5l-2.1,0.6L812.3,393.7z"/>
		<path class="st0" d="M920.9,495.5l1-1.5l0.1-2.8l-2.6-2.9l-0.2-3.3l-2.3-2.7l-2.3-0.2l-0.6,1.2h-1.9l-0.9-0.6l-3.3,2v-3l0.8-3.5
			l-2.1-0.1l-0.2-2l-1.4-1l0.7-1.2l2.7-2.3l0.3,0.8h1.7l-0.5-3.9l1.6-0.5l1.8,2.7l1.4,3.1h3.9l1.2,2.9l-2,0.9l-0.9,1.2l3.8,2
			l2.6,3.9l2,2.9l2.3,2.3l0.8,2.3l-0.6,3.3l-2.8-1.2l-1.4,2.3L920.9,495.5z"/>
		<path class="st0" d="M700.9,429.6h-0.9l-0.3,0.6h-1.1l1.1-3.1l1.6-2.7v-0.1l1.4,0.2l0.5,1.5l-1.7,1.4L700.9,429.6z"/>
		<path class="st0" d="M846.6,517.2l-0.5,3.3l-1.3,0.9l-2.8,0.7l-1.5-2.5L840,515l1.4-5.2l2.2,1.8l1.5,2.3L846.6,517.2z"/>
		<path class="st0" d="M659.4,336l-0.3-1.4l0.3-1.5l-1.4-0.9l-3.3-1l-0.7-4.6l3.6-1.8l5.3,0.4l3.1-0.6l0.4,1.2l1.7,0.4l3,2.7
			l0.3,2.5l-2.6,1.8l-0.7,3.1l-3.4,2h-3.1l-0.8-1.7L659.4,336z"/>
		<path class="st0" d="M606.5,357.7l0.6,1.1l-0.2,2.1h-0.9l-0.7-0.4l0.3-2.7L606.5,357.7z"/>
		<path class="st0" d="M650.1,392.7l-0.2-0.8l-1.4,2.1l0.2,1.3l-0.7-0.3l-0.9-1.4l-1.4-0.9l0.3-0.7l0.5-2.3l1-1l0.6-0.4l0.8,0.7
			l0.5,0.6l1,0.5l1.2,0.9l-0.3,0.4l-0.6,1L650.1,392.7z"/>
		<path class="st0" d="M744.4,580.5l0.8,1.4l0.8,2.1l0.5,3.9l0.8,1.5l-0.3,1.6l-0.6,1l-1.1-1.9l-0.6,1l0.6,2.3l-0.3,1.4l-0.9,0.8
			l-0.2,2.8l-1.2,3.9l-1.6,4.6l-2,6.4l-1.2,4.8l-1.4,4l-2.6,0.8l-2.8,1.5l-1.8-0.9l-2.5-1.2l-0.9-1.8l-0.2-3.1l-1.1-2.7l-0.3-2.4
			l0.6-2.4l1.5-0.6V608l1.5-2.6l0.3-2.1l-0.7-1.6l-0.6-2.1l-0.3-3l1.1-1.8l0.4-2.1h1.6l1.8-0.7l1.2-0.6h1.4l1.8-1.9l2.6-2l0.9-1.6
			l-0.4-1.4l1.3,0.4l1.8-2.3v-1.9l1.1-1.5L744.4,580.5z"/>
		<path class="st0" d="M652.6,395.3h0.4l0.1-0.9l1.9-0.7l0.7-0.2l1.1-0.3h1.5l1.6,1.4l0.2,2.8l-0.6,0.1l-0.5,0.7h-1.7l-1.2,0.9
			l-2.1,0.4l-1.3-1l-0.5-1.8L652.6,395.3z"/>
		<path class="st1" d="M548.8,494.5l1.1-0.6l0.5-1.9h1l2.3,0.9l1.8-0.6l1.2,0.2l0.5-0.7h12.7l0.7-2.3L570,489l-1.5-14.3L567,460h4.8
			l10.7,7.5l10.7,7.4l0.7,1.6l2,1l1.5,0.6v2.1l3.5-0.3v7.6l-1.7,2.3l-0.3,2l-2.8,0.5l-4.3,0.3l-1.2,1.2l-2,0.1h-2l-0.8-0.6l-1.8,0.5
			l-3,1.4l-0.6,1l-2.5,1.5l-0.4,0.8l-1.3,0.6l-1.5-0.4l-0.9,0.8l-0.5,2.3l-2.6,2.1v1.1l-0.9,1.4l0.2,1.8l-1.3,0.5l-0.7,0.4l-0.5-1.4
			l-0.9,0.4h-0.6l-0.6,0.9h-2.4l-0.9-0.5l-0.4,0.3l-1-0.9l0.2-0.9l-0.4-0.4l-0.7,0.3l0.1-1l0.6-0.8l-1.3-1.3l-0.4-0.9l-0.7-0.7h-0.6
			l-0.8,0.5l-1,0.4l-0.9,0.7l-1.4-0.3l-0.9-0.8h-0.5l-0.8,0.4h-0.5l-0.2-1.2l0.1-1l-0.2-1.6l-1.2-0.9l-0.6-1.8L548.8,494.5z"/>
		<path class="st1" d="M902.9,476.1l-1.8,1.5l-2.3,0.2l-1.5,3.6l-1.3,0.6l1.5,2.9l2,2.3l1.3,2.2l-1.2,2.8l-1.1,0.6l0.8,1.6l2.1,2.6
			l0.4,1.8v1.5l1.2,2.9l-1.7,3l-1.5,3.3l-0.3-2.3l1-2.5l-1.1-1.9l0.3-3.5l-1.3-1.7l-1-3.9l-0.6-4.1l-1.4-2.7l-2.1,1.7l-3.6,2.3
			l-1.8-0.3l-2-0.8l1.1-4.1l-0.6-3.1l-2.5-3.8l0.4-1.2l-1.8-0.4l-2.3-2.7l-0.2-2.7l1.1,0.5v-2.4l1.6-0.8l-0.3-1.5l0.7-1.2l0.1-3.6
			l2.5,0.8l1.4-2.8l0.2-1.7l1.7-2.9v-2l4.1-2.4l2.3,0.6l-0.3-2.2l1.1-0.6l-0.3-1.4l1.8-0.3l1.1,2.1l1.4,0.9v2.7l-0.1,2.9l-3,2.9
			l-0.4,4.1l3.3-0.6l0.8,3.2l2,0.7l-0.9,2.8l2.3,1.3l1.4,0.6l2.3-1v1.4l-2.7,2.3l-0.7,1.2L902.9,476.1z"/>
		<path class="st0" d="M865.6,361.7l3.3-0.8l6-4.2l4.8-2.3l2.7,1.5h3.3l2.1,2.3l3.2,0.2l4.6,1.2l3.1-3.4l-1.3-2.9l3.3-5.3l3.6,2.1
			l2.9,0.6l3.7,1.3l0.6,3.8l4.6,2.1l3-0.9l4-0.6l3.2,0.6l3.1,2.3l1.9,2.5h2.9l4,0.8l2.9-1.2l4.2-0.8l4.6-3.5l1.9,0.5l1.7,1.7
			l3.8-0.4l-1.5,3.7l-2.3,4.8l0.8,1.9l1.8-0.6l3.1,0.7l2.4-1.7l2.5,1.5l2.9,3.3l-0.3,1.6l-2.5-0.5l-4.6,0.6l-2.3,1.3l-2.3,3
			l-4.8,1.8l-3.2,2.3l-3.3-0.9l-1.8-0.4l-1.7,2.9l1,1.7l0.5,1.5l-2.3,1.5l-2.3,2.3l-3.7,1.5l-4.8,0.2l-5.1,1.5l-3.7,2.3l-1.4-1.3
			h-3.8l-4.6-2.6l-3.1-0.6l-4.2,0.6l-6.6-1h-3.5l-1.8-2.6l-1.5-4l-2-0.5l-3.8-2.8l-4.3-0.6l-3.8-0.8l-1.1-2l1.2-5.4l-2.2-3.7
			l-4.6-1.8l-2.7-2.5L865.6,361.7z"/>
		<path class="st1" d="M279.4,456.5l-1.2,3.1l-0.6,2.5l-0.2,4.6l-0.3,1.7l0.6,1.8l1,1.7l0.6,2.6l2.1,2.5l0.7,1.9l1.2,1.6l3.4,0.9
			l1.3,1.4l2.8-0.9l2.3-0.3l2.3-0.6l2-0.6l2-1.4l0.8-2l0.3-2.8l0.6-1l2.1-0.9l3.4-0.8h2.8l1.9-0.3l0.8,0.7v1.6l-1.7,2l-0.7,2.1
			l0.6,0.6l-0.5,1.5l-0.8,2.6l-0.8-0.9h-0.7h-0.6l-1.1,2l-0.6-0.4l-0.4,0.2v0.5h-5.9v1.9h-1.4l1.2,1.1l1.2,0.8l0.3,0.7l0.5,0.2v1.1
			h-4.1l-1.5,2.7l0.4,0.6l-0.4,0.8v0.9l-3.6-3.5l-1.6-1.1l-2.6-0.9l-1.8,0.2l-2.6,1.2l-1.6,0.3l-2.3-0.9l-2.3-0.6l-3-1.3l-2.3-0.5
			l-3.6-1.5l-2.7-1.6l-0.8-0.9l-1.8-0.2l-3.3-1.1l-1.3-1.5l-3.4-1.9l-1.6-2.1l-0.8-1.6l1.1-0.3l-0.3-1l0.7-0.9v-1.2l-1.1-1.5
			l-0.3-1.4l-1.1-1.7l-3-3.4l-3.2-2.7l-1.5-2.2l-2.7-1.4l-0.6-0.9l0.5-2.2l-1.6-0.8l-1.9-1.7l-0.8-2.5l-1.7-0.3l-1.8-1.9l-1.5-1.8
			l-0.1-1.1l-1.7-2.7l-1.1-2.8v-1.4l-2.3-1.5l-1.1,0.2l-1.8-1l-0.5,1.5l0.5,1.8l0.3,2.7l1.1,1.5l2.3,2.5l0.5,0.9l0.5,0.3l0.4,1.2
			h0.6l0.6,2.3l1,0.9l0.7,1.2l2,1.8l1.1,3.3l0.9,1.5l0.9,1.6l0.2,1.8h1.5l1.3,1.6l1.2,1.5v0.6l-1.3,1.2h-0.6l-0.8-2.1l-2.1-2
			l-2.3-1.7l-1.6-0.9v-2.5l-0.5-1.9l-1.5-1.1l-2.2-1.6l-0.4,0.5l-0.8-0.9l-2-0.9l-1.9-2.1l0.2-0.3l1.3,0.2l1.2-1.3l0.1-1.6l-2.3-2.5
			l-1.8-1l-1.2-2.3l-1.2-2.3l-1.5-3l-1.2-3.4l3.6-0.3l4-0.4l-0.3,0.7l4.8,1.8l7.2,2.6h8.8v-1.5h5.5l1.2,1.3l1.6,1.2l1.9,1.6l0.9,2.1
			l0.8,2l1.6,1.1l2.6,1.1l2-2.9h2.6l2.3,1.5l1.6,2.5l1.1,2.1l1.9,2l0.7,2.5l0.9,1.7l2.5,1.1l2.3,0.8L279.4,456.5z"/>
		<polygon class="st0" points="907.8,521.4 908,523 910.1,522.6 911.2,521.3 911.9,521.6 913.7,523.6 915.1,525.7 915.3,527.8 
			914.9,529.2 915.2,530.3 915.5,532.2 916.6,533.1 917.8,535.9 917.8,536.9 915.5,537.1 912.5,534.8 908.8,532.3 908.4,530.7 
			906.6,528.6 906.1,526 905,524.3 905.4,522 904.7,520.6 905.2,520.1 		"/>
		<polygon class="st1" points="963.4,526.8 961.1,527.9 958.3,527.4 954.7,527.4 953.6,530.9 952.4,532.1 950.7,536.4 948.1,537.1 
			945.1,536.2 943.6,536.5 941.8,538.1 939.8,537.9 937.7,538.5 935.5,536.7 935,534.6 937.3,535.7 939.8,535.1 940.4,532.5 
			941.7,531.9 945.5,531.2 947.8,528.7 949.4,526.7 950.9,528.3 951.5,527.3 953.1,527.3 953.2,525.2 953.4,523.7 955.8,521.4 
			957.4,518.9 958.7,518.9 960.3,520.5 960.5,521.9 962.6,522.8 965.2,523.7 965,525 962.9,525.1 		"/>
		<path class="st0" d="M696.9,577.6l2.3-0.3l3.8,0.9l0.8-0.4h2.3l1.1-1h1.9l3.5-1.2l2.5-1.8l0.5,1.4l-0.1,3.2l0.4,2.8l0.1,5.1
			l0.6,1.6l-0.9,2.3l-1.2,2.3l-2,2l-2.9,1.2l-3.6,1.6l-3.6,3.6l-1.2,0.6l-2.3,2.3l-1.3,0.8l-0.3,2.3l1.5,2.5l0.6,2v1l0.6-0.2v3.3
			l-0.5,1.6l0.7,0.6l-0.5,1.4l-1.3,1.2l-2.6,1.2l-3.8,1.9l-1.4,1.3l0.3,1.5l0.8,0.2l-0.3,1.8h-2.3l-0.3-1.6l-0.5-1.6l-0.3-1.2
			l0.6-3.9l-0.8-2.4l-1.5-4.8l3.3-3.9l0.8-2.4l0.5-0.3l0.3-2l-0.5-1l0.1-2.5l0.6-2.3v-4.2l-1.6-1.1l-1.5-0.2l-0.7-0.8l-1.5-0.7h-2.7
			l-0.2-1.2l-0.3-2.3l9.6-2.7l1.8,1.6l0.9-0.3l1.2,0.8l0.2,1.3l-0.7,1.5l0.2,2.3l2.1,2l1-2.3l1.4-0.7l-0.3-4.2l-1.3-2.3l-1.1-1H697
			l-1-4.1L696.9,577.6z"/>
		<path class="st1" d="M639.2,635l-2.3-2.7l-1.2-2.6l-0.7-3.4l-0.8-2.5l-1.1-5.3v-4.1l-0.4-1.8l-1.2-1.4l-1.6-2.8l-1.7-4l-0.7-2.1
			l-2.6-3.3l-0.2-2.5l1.5-0.6l1.9-0.6h2.1l1.9,1.5l0.5-0.2l12.9-0.1l2.3,1.6l7.7,0.5l5.8-1.3l2.6-0.8l2.1,0.2l1.2,0.7v0.3l-1.8,0.7
			h-1l-2,1.3l-1.2-1.4l-4.9,1.2h-2.3v12l-3.1,0.1v23.1l-2.8,1.8l-1.7,0.3l-2-0.7l-1.4-0.3l-0.5-1.5l-1.2-1L639.2,635z"/>
		<path class="st0" d="M1112.9,608.9l2.6,2.1l1.6,1.6l-1.2,0.8l-1.8-0.9l-2.3-1.5l-2.1-1.8l-2.1-2.3l-0.4-1.1h1.4l1.8,1.1l1.4,1.1
			L1112.9,608.9z"/>
		<path class="st1" d="M315.7,505.8l-1.1-1l-1.5-1.3l-0.7-1.1l-1.3-1l-1.6-1.5l0.3-0.5l0.5,0.5l0.2-0.2l1-0.1l0.4-0.7h0.5v-1.6h0.7
			h0.7l0.7-0.9l0.9,0.6l0.3-0.4l0.6-0.4l1.1-0.9v-0.7h0.3l0.4-0.8h0.3l0.6,0.5l0.6,0.1l0.7-0.4h0.8l1.1-0.4l0.4-0.4h1.1l-0.3,0.3
			l-0.2,0.7l0.3,1.2l-0.7,1.1l-0.3,1.3v1.4l0.2,0.8v1.5l-0.5,0.3l-0.3,1.4l0.2,0.9l-0.6,0.8l0.2,0.9l0.5,0.5l-0.8,0.7l-0.9-0.2
			l-0.6-0.8l-1-0.3l-0.7,0.4l-2.1-0.9L315.7,505.8z"/>
		<path class="st0" d="M606.6,340.4l2.6,0.1l0.6,1.8l-0.8,4.8l-0.8,1.9h-1.9l0.6,5.3l-1.8-1.2l-2-2.3l-2.9,1.1l-2.3-0.4l1.6-1.4
			l2.8-7.6L606.6,340.4z"/>
		<path class="st0" d="M676.7,215.6l9.9,7.1l-4.1,2.5l3.5,5.8l-5.4,3.6l-2.6,0.8l1.3-6.3l-4.1-3.6l-4.8,3.1l-1.6,6.6l-3,3.9
			l-3.4-2.1l-4.1,0.4l-3.5-4.6l-1.9,2.3l-2,0.4l-0.5,5.7l-6-1.4l-0.8,4.8h-3l-2.1,5.9l-3.2,8.7l-4.9,10.8l1.2,2.5l-1.1,2.9l-3.1-0.1
			l-2.1,6.7l0.2,9.1l2,3.4l-1.1,7.6l-2.6,4.3l-1.4,3.6l-2.1-3.8l-6.3,7.1l-4.2,1.4l-4.4-3.1l-1.1-6.6l-1-15l2.9-4.4l8.4-5.9l6.3-7.5
			l5.8-10.5l7.6-15.5l5.3-6.4l8.7-11.2l6.9-4.1l5.2,0.5l4.8-7.9l5.8,0.4L676.7,215.6z"/>
		<path class="st1" d="M866.7,449.4l-0.3,1.5l0.4,2.3l-0.4,1.4h-2.6l-3.8-0.8l-2.4-0.3l-1.8-1.8l-4.3-0.5l-4.1-2l-3-1.8l-3-1.4
			l1.2-3.4l2-1.7l1.3-0.9l2.5,1.1l3.2,2.3l1.8,0.5l1.1,1.7l2.5,0.7l2.6,1.6l3.6,0.8L866.7,449.4z"/>
		<path class="st0" d="M1135.9,682.5l0.7,1.7l2.3-1.7l0.9,1.8v1.8l-1.2,2l-2.1,3.2l-1.6,1.7l1.2,2.1h-2.4l-2.7,1.7l-0.9,2.9
			l-1.8,4.6l-2.5,2l-1.6,1.3h-2.9l-2.1-1.5l-3.4-0.3l-0.5-1.7l1.7-3.3l4-4.4l2.1-0.8l2.3-1.7l2.7-2.3l1.9-2.3l1.4-3.2l1.2-1.1
			l0.5-2.3l2.3-1.9L1135.9,682.5z M1140.9,663.3l2.3,4.2v-2.7l1.4,1.1l0.5,3l2.6,1.3l2.1,0.3l1.8-1.5l1.6,0.5l-0.8,3.6l-1,2.3h-2.3
			l-0.9,1.2l0.3,1.8l-0.5,0.8l-1.2,2.3l-1.6,2.9l-2.4,1.7l-0.6-1.1l-1.3-0.6l1.8-3.4l-1-2.3l-3.4-1.6v-1.5l2.3-1.4l0.5-3.1l-0.1-2.6
			l-1.3-2.7v-0.7l-1.5-1.6l-2.5-3.4l-1.3-2.7l1.2-0.3l1.7,2.1l2.5,1L1140.9,663.3z"/>
		<path class="st0" d="M774,472.9l-1.2,2.3l-1.4-0.2l-0.6,0.8l-0.5,1.7l0.4,2.3l-0.3,0.4h-1.5l-2,1.2l-0.3,1.6l-0.7,0.7h-2l-1.2,0.8
			v1.3l-1.5,0.9l-1.8-0.3l-2.1,1.1l-1.5,0.2l-1-2.3l-2.5-5.5l9.5-3.3l2.1-6.8l-1.5-2.3v-1.4l0.9-1.4v-1.4l1.4-0.7l-0.6-0.5l0.3-2.3
			h1.6l1.4,2.3l1.8,1.2l2.3,0.5l1.9,0.6l1.4,2l0.9,1.1l1.1,0.4v0.8l-1.2,2l-0.5,0.9L774,472.9z M766.1,456.4l-0.4,0.6l-0.6-1.2
			l0.9-1.2l0.4,0.3L766.1,456.4z"/>
		<path class="st1" d="M340.5,518.1l-1.1-0.9l-0.7-1.7l0.8-0.9l-0.8-0.2l-0.6-1.1l-1.6-0.9l-1.4,0.2l-0.6,1.1l-1.3,0.8h-0.7
			l-0.3,0.7l1.5,1.7l-0.9,0.4l-0.5,0.5L331,518l-0.6-1.9l-0.4,0.6l-1.1-0.2l-0.6-1.3L327,515l-0.8-0.4h-1.4v0.7l-0.4-0.5l0.2-0.6
			l0.3-0.6l-0.1-0.6l0.5-0.4l-0.6-0.5v-1.3l1.2-0.3l1.1,1.1v0.7l1.3,0.1l0.3-0.3l0.9,0.8l1.6-0.2l1.3-0.8l1.9-0.6l1.1-0.9l1.8,0.2
			l-0.1,0.3h1.8l1.4,0.6l1,0.9l1.2,0.9l-0.4,0.5l0.7,1.9l-0.6,0.9l-1-0.2L340.5,518.1z"/>
		<path class="st0" d="M366.8,597.2l-0.9,1.7l-1.6,0.8l-3.2-1.9l-0.3-1.4l-6.3-3.3l-5.7-3.6l-2.4-2l-1.3-2.7l0.5-0.9l-2.6-4.2
			l-3.1-5.9l-3-6.3l-1.3-1.5l-1-2.3l-2.5-2.1l-2.3-1.3l1-1.4l-1.5-3l1-2.3l2.5-2l0.4,1.3l-0.9,0.7v1.2l1.3-0.3l1.3,0.3l1.3,1.6
			l1.8-1.3l0.6-2.1l1.9-2.7l3.8-1.2l3.5-3.3l1-2.1l-0.4-2.3l0.9-0.3l2.1,1.5l1,1.5l1.5,0.8l1.9,3.3l2.3,0.4l1.8-0.8l1.1,0.6l1.9-0.3
			l2.4,1.5l-2.1,3.2h0.9l1.6,1.7l-2.9-0.1l-0.4,0.5l-2.6,0.6l-3.6,2.2L356,559l-0.8,1.1l0.3,1.7l-1.9,0.9v1.3l-0.8,0.6l1.3,2.9
			l1.8,1.9l-0.7,1.4l2.1,0.2l1.2,1.7h2.8l2.6-1.9l-0.2,4.9l1.5,0.4l1.8-0.6l2.7,5.2l-0.7,1.1l-0.1,2.3v2.8l-1.2,1.6l0.6,1.2
			l-0.7,1.1l1.4,2.8L366.8,597.2z"/>
		<path class="st0" d="M1081.5,562.5l-0.9,0.3l-1.4-1.2l-1.4-2l-0.7-2.3l0.4-0.3l0.3,0.9l1,0.7l1.5,2l1.5,1.1L1081.5,562.5z
			 M1069.2,558.2l-1.7,0.3l-0.5,0.9l-1.7,0.8l-1.6,0.7h-1.7l-2.6-0.9l-1.8-0.9l0.3-1l2.8,0.5l1.7-0.3l0.5-1.5h0.5l0.3,1.7l1.8-0.2
			l0.9-1.1l1.8-1.1l-0.3-1.9h1.9l0.6,0.5v1.8L1069.2,558.2z M1054,564.3l2.8,2.1l2.1,3.4h1.8l-0.1,1.4l2.4,0.6l-0.9,0.6l3.4,1.3
			l-0.3,0.9l-2.1,0.2l-0.8-0.8l-2.7-0.4l-3.2-0.5l-2.5-2l-1.8-1.8l-1.7-2.8l-4.1-1.4l-2.7,0.9l-1.9,1.1l0.4,2.3l-2.5,1.1l-1.8-0.5
			l-3.3-0.1v-10.4v-10.3l5.5,2.2l5.9,1.8l2.2,1.6l1.8,1.6l0.5,1.9l5.3,2l0.8,1.7l-2.9,0.3L1054,564.3z M1072.8,555l-1,0.8l-0.6-1.9
			l-0.7-1.2l-1.4-1l-1.8-1.3l-2.3-0.9l0.9-0.8l1.7,0.9l1.1,0.7l1.3,0.8l1.3,1.3l1.2,1L1072.8,555z"/>
		<path class="st1" d="M988,514.4l0.3,2.1l0.2,1.8l-1.1,2.9l-1.2-3.2l-1.5,1.6l1,2.3l-0.9,1.5l-3.7-1.8l-0.9-2.3l1-1.5l-2-1.5
			l-1,1.3l-1.5-0.1l-2.3,1.8l-0.5-0.9l1.2-2.7l2-0.9l1.7-1.2l1.1,1.4l2.3-0.9l0.5-1.4h2.3l-0.2-2.5l2.6,1.5l0.3,1.6L988,514.4z
			 M980.4,508.4l-1.1,1.1l-1,2l-1,0.9l-2-2.3l0.6-0.9l0.8-0.9l0.3-2l1.8-0.2l-0.5,2.2l2.3-3.1L980.4,508.4z M963,511.4l-4.2,3
			l1.6-2.3l2.3-2l1.9-2.3l1.7-3.2l0.6,2.6l-2.1,1.8L963,511.4z M973.8,503.2l1.9,1h2v1.3l-1.5,1.4l-2,1v-1.5l0.2-1.6L973.8,503.2z
			 M985.3,502.3l0.9,3.6l-2.4-0.9v1.1l0.8,2l-1.5,0.7l-0.1-2.3l-0.9-0.2l-0.5-1.9l1.9,0.3v-1.2l-1.9-2.5h3L985.3,502.3z
			 M972.7,499.4l-0.8,2.8l-1.4-1.6l-1.6-2.5h2.7L972.7,499.4z M972,481.6l2,0.9l1-0.9l0.3,0.9l-0.5,1.4l1.1,2.3L975,489l-1.9,1.1
			l-0.5,2.6l0.7,2.6l1.7,0.4l1.4-0.4l4,1.8l-0.3,1.8l1,0.8l-0.3,1.5l-2.5-1.6l-1.2-1.7l-0.8,1.2l-2-1.9l-2.9,0.5l-1.6-0.7l0.2-1.3
			l1-0.8l-0.9-0.8l-0.4,1.2l-1.6-1.9l-0.5-1.4v-3.1l1.3,1.1l0.3-5.1l1-3L972,481.6z"/>
		<path class="st1" d="M377.3,481.6l1.6,0.3l0.6,0.6l-0.8,0.8h-2.3h-1.8l-0.2-1.4l0.4-0.5L377.3,481.6z"/>
		<path class="st0" d="M700.1,433v2.3l-0.5,1.1l-1.5,0.5l0.1-1l0.8-0.5l-0.8-0.4l0.6-2.5L700.1,433z"/>
		<path class="st0" d="M558.7,395.3l1.2-1.1l1.3-0.6l0.8,2.1h1.9l0.6-0.5l1.8,0.1l0.9,2.1l-1.5,1.1v3.3l-0.5,0.6l-0.1,1.9l-1.4,0.3
			l1.3,2.4l-0.9,2.7l1.1,1.2l-0.4,1.1l-1.2,1.5l0.3,1.3l-1.3,1l-1.7-0.6l-1.6,0.4l0.5-3.1l-0.3-2.5l-1.4-0.4l-0.8-1.5l0.3-2.7
			l1.2-1.5l0.2-1.7l0.7-2.5v-1.8l-0.6-1.5L558.7,395.3z"/>
		<path class="st0" d="M659.4,368.5l1.4-1l2,0.5h2l1.5,1.1l1.1-0.7l2.3-0.5l0.8-1.1h1.3l1,0.5l1,1.4l1,2l1.8,2.8v2l-0.3,1.9l0.6,2.1
			l1.4,0.8l1.5-0.7l1.5,0.8v1.2l-1.5,0.9l-1-0.4l-0.9,5.3l-1.9-0.5l-2.3-1.6l-3.7,1l-1.6,1.1l-4.6-0.2l-2.4-0.7l-1.2,0.3l-0.9-1.8
			l-0.6-0.8l0.7-0.7l-0.8-0.6l-1,1l-1.8-1.3l-0.3-1.8l-1.9-1.1l-0.3-1.4l-1.7-1.8l2.5-0.9l1.9-3.1l1.5-3.2L659.4,368.5z"/>
		<path class="st0" d="M653.5,379.9l1.9,1.1l0.3,1.8l1.8,1.3l1-1l0.8,0.6l-0.7,0.7l0.6,0.8l-0.8,1l0.3,1.6l1.5,1.9l-1.2,1.3
			l-0.5,1.4l0.3,0.5l-0.5,0.6h-1.5l-1.1,0.3v-0.3l0.4-0.5l0.4-1.1H656l-0.6-0.8l-0.5-0.2l-0.4-0.7l-0.6-0.3l-0.5-0.6l-0.6,0.3
			l-0.4,1.4l-0.8,0.3l0.3-0.4l-1.2-0.9l-1-0.5l-0.5-0.6l-0.8-0.7l0.7-0.2l0.5-2.1l-1.5-1.7l0.8-1.9h-1.3l1.2-1.7l-1-1.3l-0.8-1.8
			l2.4-1.2l2,0.2l1.7,1.8L653.5,379.9z"/>
		<path class="st0" d="M723,488.7l-0.4-1.4l-1-1l-0.3-1.3l-1.6-1.2l-1.7-2.8l-0.9-2.7l-2.3-2.3l-1.4-0.6l-2.1-3.2l-0.4-2.3l0.1-2
			l-1.8-3.8l-1.5-1.3l-1.7-0.7l-1-2l0.2-0.8l-0.9-1.8l-0.9-0.8l-1.2-2.6l-1.9-2.8l-1.6-2.4H697l0.5-2l0.1-1.2l0.4-1.5l3.5,0.6
			l1.4-1.1l0.8-1.3l2.3-0.5l0.5-1.2l1.1-0.6l-3.2-3.7l6.3-1.9l0.6-0.6l3.8,1l4.6,2.6l8.9,7.3l5.9,0.3l2.8,0.3l0.8,1.7h2.3l1.2,3.1
			l1.6,0.8l0.6,1.2l2.2,1.5l0.2,1.5l-0.3,1.2l0.4,1.2l0.9,1l0.4,1.1l0.5,0.9l0.9,0.7l0.9-0.3l0.6,1.3l0.1,0.8l1.2,3.5l9.5,1.7
			l0.6-0.7l1.5,2.3l-2.1,6.8L752,480l-9.2,1.3l-3,1.5l-2.3,3.5l-1.5,0.6l-0.8-1.1l-1.2,0.2l-3.1-0.3l-0.6-0.3h-3.6l-0.9,0.3
			l-1.3-0.9l-0.9,1.6l0.3,1.4L723,488.7z"/>
		<path class="st0" d="M1101.3,574.1l0.9,1.1h-2.3l-1.2-2l1.9,0.8L1101.3,574.1z M1097.3,572.2h-1.2l-1.9-0.3l-0.7-0.5l0.2-1.3
			l2.1,0.5l1,0.7L1097.3,572.2z M1099.9,571.3l-0.5,0.6l-2.3-2.8l-0.6-1.9h0.9l1.1,2.5L1099.9,571.3z M1094.2,567.3l0.1,0.6
			l-2.5-1.3l-1.7-1.1l-1.2-1.1l0.5-0.3l1.5,0.8l2.6,1.5L1094.2,567.3z M1086.8,564.1l-0.6,0.2l-1.4-0.7l-1.3-1.3l0.2-0.5l1.9,1.3
			L1086.8,564.1z"/>
		<path class="st0" d="M695,511h-0.4v-1.6l-0.4-1.1l-1.6-1.3l-0.4-2.3l0.4-2.3l-1.5-0.2l-0.2,0.7l-1.9,0.2l0.8,0.9l0.3,1.9l-1.7,1.8
			l-1.6,2.3l-1.6,0.3l-2.7-1.9l-1.2,0.6l-0.3,0.9l-1.6,0.6v0.6h-3.2l-0.4-0.6h-2.3l-1.1,0.6l-0.9-0.3l-1.6-1.9l-0.6-0.9l-2.3,0.4
			l-0.9,1.5l-0.8,2.8l-1.1,0.6l-1,0.3l-0.3-0.2l-1.1-0.9l-0.2-1l0.5-1.3v-1.3l-1.8-2l-0.4-1.4V505l-1.2-0.9v-1.9L658,501l-1.1,0.2
			l0.3-1.2l0.8-1.4l-0.4-1.3l1-1l-0.6-0.8l0.8-2l1.5-2.3l2.7,0.2l-0.2-13.1v-1.4h3.6v-6.7h37.6l1,3.3l-0.7,0.6l0.5,3.5l1.2,4
			l1.2,0.8l1.7,1.2l-1.6,1.9l-2.3,0.6l-1,1l-0.3,2.2l-1.4,4.8l0.3,1.3l-0.5,2.8l-1.3,3.2l-1.9,1.6l-1.4,2.4l-0.3,1.3l-1.5,0.9
			L695,511L695,511z"/>
		<path class="st0" d="M665.8,135.2l-7.1,6.1l-5.6-3.4l2.3-3.9l-1.9-4.9l6.6-3.1l1.2,5.9L665.8,135.2z M645.2,105l10.4,12.8l-8,6.4
			l-1.8,11.4l-2.8,2.8l-1.5,11.9l-3.8,0.6l-6.9-8.6l3-5.3l-4.8-4.3l-6.2-13.4l-2.5-13.3l8.7-6.4l1.7,6.3l4.6-0.3l1.2-6.1l4.6-0.6
			L645.2,105z M668,92l6.2,6.6l-4.6,9.6l-9.2,2.1l-9.3-2.9l-0.6-4.9l-4.6-0.3l-3.5-8.5l9.7-5.3l4.6,4.6l3.2-5.7L668,92z"/>
		<path class="st0" d="M647.1,360.7l0.2,0.3l1.3-0.6l1.6,1.7l1.9-1l1.5,0.5l2.3-0.7l3,1.8L658,364l-0.6,1.9l-0.7,0.5l-3.4-1.5
			l-1,0.3l-0.7,1.1l-1.5,0.6l-0.3-0.3l-1.5,0.7l-1.3,0.1l-0.3,0.9L644,369l-1.2-0.5l-1.6-1.2l-0.3-1.6l0.3-0.6l0.4-1.1h1.4l1.1-0.5
			V363l0.6-0.2l0.2-1.1l0.7-0.2l0.5-0.9L647.1,360.7z"/>
		<path class="st0" d="M551.1,519.5l-0.9-0.2L548,518l-1.7-1.7l-0.6-1.2l-0.4-2.3l1.7-1.4l0.4-0.9l0.6-0.7h0.9l0.7-0.6h2.5l0.9,1.1
			l0.7,1.3v0.9l0.5,0.8v1.2l0.9-0.2l-1.5,1.5l-1.4,1.7l-0.2,0.9L551.1,519.5z"/>
		<path class="st1" d="M406.2,522.2l3.8,0.6l0.3-0.6l2.6-0.2l3.4,0.9l-1.7,2.7l0.3,2.2l1.2,1.9l-0.6,1.4l-0.3,1.4l-0.8,1.3l-1.8-0.7
			l-1.5,0.3l-1.3-0.3l-0.3,0.9l0.5,0.6l-0.3,0.6l-1.7-0.3l-1.9-2.7l-0.4-1.8h-1l-1.4-2.3l0.6-1.6l-0.2-0.7l1.9-0.8L406.2,522.2z"/>
		<path class="st0" d="M695,511v2.5l-0.5,1h-1.7l-1.1,1.8l1.9,0.2l1.6,1.5l0.6,1.3l1.5,0.7l1.9,3.4l-2.1,2.1l-1.9,1.9l-2,1.5h-2.3
			l-2.6,0.7l-2-0.7l-1.3,0.9l-2.8-2.1l-0.8-1.3l-1.8,0.7l-1.5-0.2l-0.9,0.5L676,527l-1.9-2.6l-0.5-1l-2.3-1.2l-0.8-1.9l-1.3-1.4
			l-2.1-1.7v-1l-1.7-1.3l-2.2-1.2l1-0.3l1.1-0.6l0.8-2.8l0.9-1.5l2.3-0.4l0.6,0.9l1.6,1.9l0.9,0.3l1.1-0.6h2.3l0.4,0.6h3.2v-0.6
			l1.6-0.6l0.3-0.9l1.2-0.6l2.7,1.9l1.6-0.3l1.6-2.3l1.7-1.8l-0.3-1.9l-0.8-0.9l1.9-0.2l0.2-0.7l1.5,0.2l-0.4,2.3l0.4,2.3l1.6,1.3
			l0.4,1.1v1.6L695,511z"/>
		<path class="st1" d="M309.1,498.4l-0.3,0.8h-1.8l-1.1-0.3l-1.3-0.6l-1.8-0.2l-0.9-0.7v-0.5l1.1-0.8l0.6-0.4l-0.2-0.4l0.7-0.2
			l0.9,0.3l0.7,0.6l1,0.5v0.4l1.4-0.4l0.6,0.2l0.4,0.3L309.1,498.4z"/>
		<path class="st0" d="M710.4,429.2l-6.2,4l-3.6-1.5l0,0l0.4-0.6v-1.5l0.8-2.1l1.7-1.4l-0.5-1.5l-1.4-0.2l-0.3-3l0.8-1.6l0.9-0.9
			l0.9-0.9l0.2-2.3l1,0.8l3.5-1.1l1.7,0.7h2.6l3.6-1.5h1.7l3.6-0.6l-1.6,2.5l-1.7,1l0.3,2.8l-1.2,4.6L710.4,429.2z"/>
		<path class="st0" d="M689.1,628.3l-0.6,1.6l-1.8,0.4l-1.9-1.9v-1.2l0.9-1.3l0.3-1l0.9-0.3l1.6,0.6l0.5,1.6L689.1,628.3z"/>
		<path class="st1" d="M593.3,521.6l-2.5,0.7l-0.7-1.1l-0.9-2l-0.3-1.6l0.7-2.9l-0.8-1.2l-0.3-2.5v-2.3l-1.3-1.7l0.2-1h2.8l-0.4,1.7
			l1,0.9l1.1,1.1v1.6l0.6,0.6l-0.1,7.3L593.3,521.6z"/>
		<path class="st0" d="M912.6,502.3l-2.8-1.5H907l0.5-2.5h-2.8l-0.3,3.6l-1.7,4.6l-1,2.8l0.2,2.3h2.1l1.3,2.9l0.7,3.1l1.8,1.8
			l1.9,0.4l1.6,1.6l-1,1.3l-2.1,0.4l-0.3-1.6l-2.6-1.4l-0.6,0.6l-1.2-1.2l-0.6-1.6l-1.7-1.8l-1.5-1.5l-0.5,1.9l-0.6-1.8l0.3-2
			l0.9-3.1l1.5-3.3l1.7-3l-1.2-2.9v-1.5l-0.4-1.8l-2.1-2.6l-0.8-1.6l1.1-0.6l1.2-2.8l-1.3-2.2l-2-2.3l-1.5-2.9l1.3-0.6l1.5-3.6
			l2.3-0.2l1.8-1.5l1.8-0.8l1.4,1l0.2,2l2.1,0.1l-0.8,3.5v3l3.3-2l0.9,0.6h1.9l0.6-1.2l2.3,0.2l2.3,2.7l0.2,3.3l2.8,2.5l-0.1,2.8
			l-1,1.5l-3-0.5l-4.1,0.6l-2,2.7L912.6,502.3z"/>
		<path class="st0" d="M812.5,402.2l-1.2,1.3l-3.4-0.7l-0.3,2.3l3.4-0.3l3.9,1.3l6-0.6l0.8,3.8l1-0.4l1.9,0.9v1.6l0.5,2.3h-3.3
			l-2.2-0.3l-2,1.8l-1.4,0.4l-1.1,0.8L814,415l0.3-3.3l-1-0.2l0.3-1.2l-1.7-0.9l-1.4,1.4l-0.3,1.6l-0.5,0.6h-1.9l-1,1.8l-1.1-0.8
			l-2.3,1.3l-1-0.5l1.8-4l-0.7-3l-2.3-1l0.8-1.8l2.7,0.2l1.5-2.3l1-2.7l4.2-1l-0.6,1.9l0.5,1.2L812.5,402.2z"/>
		<path class="st0" d="M983.5,569.1l0.4-0.7l2.7-0.7h2.3l1-0.4l1.2,0.4l-1.2,0.9l-3.3,1.4l-2.7,0.9v-1L983.5,569.1z"/>
		<path class="st0" d="M781.3,420.6l-0.3-3.3l-2.3-0.1l-3.6-3.5l-2.5-0.4l-3.5-2l-2.3-0.4l-1.4,0.7h-2.1l-2.3,2.3l-2.8,0.8l-0.6-2.8
			l0.5-4.2l-2.5-1.4l0.8-2.8l-2.1-0.3l0.7-3.5l3,1l2.8-1.3l-2.3-2.5l-0.9-2.3l-2.6,1.1l-0.3,3.1l-1-2.7l1.4-1.4l3.6-0.9l2.1,1.2
			l2.3,3.3l1.6-0.2h3.6l-0.5-2.1l2.7-1.5l2.7-2.5l4.3,2.3l0.3,3.4l1.2,0.9l3.4-0.2l1.1,0.8l1.6,4.3l3.6,2.8l2.1,1.9l3.3,2l4.2,1.7
			v2.4l-0.9-0.1l-1.5-1.1l-0.5,1.4l-2.7,0.8l-0.6,3.2l-1.8,1.2l-2.5,0.6l-0.7,1.8l-2.3,0.5L781.3,420.6z"/>
		<path class="st0" d="M617.5,440.7l-1.4-6.6l-1.9-1.5v-0.9l-2.6-2.3l-0.3-2.9l2-2.1l0.7-3.2l-0.5-3.7l0.6-2l3.3-1.6l2.3,0.5v2
			l2.7-1.5l0.2,0.8l-1.6,1.9v1.8l1.1,1l-0.4,3.3l-2.1,1.9l0.6,2.1h1.6l0.8,1.8l1.2,0.6l-0.2,2.9l-1.5,1.1l-1,1.2l-2.2,1.4l0.3,1.5
			l-0.3,1.6L617.5,440.7z"/>
		<path class="st0" d="M973.4,461.7l-1.9,5.5l-1.4,2.8l-1.7-2.9l-0.2-2.6l1.9-3.4l2.5-2.6l1.5,1L973.4,461.7z"/>
		<path class="st1" d="M694.9,543.9l0.6,0.3l11.5,6.4l0.2,1.8l4.6,3.2l-1.5,3.9l0.2,1.8l2,1.2v0.8l-0.9,1.9l0.2,1l-0.2,1.5l1.1,2
			l1.3,3.2l1.2,0.7l-2.5,1.8l-3.5,1.2h-1.9l-1.1,1h-2.3l-0.8,0.4l-3.8-0.9l-2.3,0.3l-0.9-4.4l-1.1-1.5l-0.6-0.9l-3.1-0.6l-1.8-1
			l-2-0.5l-1.3-0.6l-1.3-0.8l-1.7-4l-1.8-1.8l-0.6-1.8l0.3-1.7l-0.6-2.9l1.3-0.1l1.1-1.1l1.2-1.7l0.8-0.6v-1l-0.7-0.7l-0.2-1.2
			l0.9-0.4l0.2-1.8l-1.3-1.8l1.1-0.4h3.5L694.9,543.9z"/>
		<path class="st0" d="M798.2,413.8v-2.4l-4.2-1.7l-3.3-2l-2.1-1.9l-3.6-2.8l-1.6-4.3l-1.1-0.8l-3.4,0.2l-1.2-0.9l-0.3-3.4l-4.3-2.3
			l-2.7,2.5l-2.7,1.5l0.5,2.1h-3.6l-0.1-16l8.2-2.7l0.6,0.4l4.9,3.2l2.6,1.7l3,4l3.7-0.6l5.4-0.3l3.8,3.2l-0.2,4.3h1.5l0.6,3.5
			l4,0.1l0.9,2h1.2l1.4-3l4.2-3l1.8-0.8l0.9,0.4l-2.7,2.7l2.3,1.6l2.3-1.1l3.8,2.3l-4.1,3l-2.3-0.4h-1.3l-0.5-1.2l0.6-1.9l-4.2,1
			l-1,2.7l-1.5,2.3l-2.7-0.2l-0.8,1.8l2.3,1l0.7,3l-1.8,4l-2.3-0.8L798.2,413.8z"/>
		<path class="st0" d="M1119.4,593.5l-1,0.4l-1.1-1.4v-0.9L1119.4,593.5z M1117.1,588.5l0.5,2.6l-0.9-0.4l-0.6,0.2l-0.5-0.9v-2.5
			L1117.1,588.5z"/>
		<path class="st0" d="M755.7,487.7l-2.3,0.9l-0.6,1.5v1.1l-3.2,1.4l-5.1,1.5l-2.8,2.3l-1.4,0.2l-0.9-0.2l-1.8,1.4l-2,0.6l-2.7,0.2
			l-0.8,0.2l-0.7,0.9l-0.8,0.2l-0.5,0.8h-1.6l-1,0.4l-2.3-0.2l-0.8-1.9v-1.8l-0.5-1l-0.6-2.3l-0.9-1.3l0.6-0.2l-0.3-1.5l0.4-0.6
			l-0.1-1.4l1.4-1.1l-0.3-1.4l0.9-1.6l1.3,0.9l0.9-0.3h3.6l0.6,0.3l3.1,0.3l1.2-0.2l0.8,1.1l1.5-0.6l2.3-3.5l3-1.5l9.2-1.3l2.5,5.5
			L755.7,487.7z"/>
		<path class="st0" d="M687.3,637.4l-0.6,0.5l-1.3,1.8l-0.9,1.9l-1.8,2.6l-3.6,3.8l-2.3,2.3l-2.3,1.7l-3.3,1.5l-1.6,0.2l-0.4,1.1
			l-1.9-0.6l-1.6,0.7l-3.4-0.7l-1.9,0.5l-1.3-0.2l-3.3,1.5l-2.7,0.6l-2,1.5h-1.5l-1.3-1.4h-1.1l-1.4-1.7l-0.1,0.5l-0.4-1v-2.3
			l-1-2.5l1-0.6v-2.9l-2.1-3.4l-1.6-3.1l0,0l-2.3-4.6l1.5-1.8l1.2,1l0.5,1.5l1.4,0.3l2,0.7l1.7-0.3l2.8-1.8v-13.3l0.9,0.5l1.9,3.3
			l-0.3,2.1l0.7,1.2l2.3-0.4l1.6-1.6l1.5-1.1l0.8-1.7l1.5-0.8l1.3,0.4l1.5,1l2.6,0.2l2-0.8l0.3-1.1l0.6-1.7l1.7-0.3l0.9-1.3l1.1-2.3
			l2.8-2.6l4.5-2.5h1.3l1.5,0.6l1.1-0.4l1.7,0.3l1.5,4.8l0.8,2.4l-0.6,3.9l0.3,1.2l-1.6-0.6l-0.9,0.3l-0.3,1l-0.9,1.3v1.2l1.9,1.9
			l1.8-0.4l0.6-1.5h2.3l-0.8,2.6l-0.4,3l-0.8,1.6L687.3,637.4z M679.2,636.3l-1.4-1.1l-1.5,0.7l-1.7,1.4l-1.7,2.3l2.3,2.8l1.1-0.4
			l0.6-1.2l1.8-0.6l0.6-1.2l1-1.8L679.2,636.3z"/>
		<path class="st1" d="M691.2,570.1l1.5,1.4l0.8,2.7l-0.6,0.9l-0.6,2.6l0.6,2.7l-1,1.1l-1,3l1.7,0.8l-9.6,2.7l0.3,2.3l-2.3,0.5
			l-1.8,1.3l-0.4,1.1l-1.1,0.3l-2.8,2.7l-1.8,2.1h-1.1l-1-0.4l-3.5-0.4l-0.6-0.3v-0.3l-1.2-0.7l-2.1-0.2l-2.6,0.8l-2.1-2.1l-2.1-2.7
			l0.1-10.4h6.6l-0.3-1.1l0.5-1.2l-0.6-1.5l0.4-1.6l-0.3-1h1.1l0.2,1h1.5l2,0.3l1.1,1.5l2.5,0.5l1.9-1l0.7,1.7l2.4,0.5l1.2,1.4
			l1.3,1.8h2.4l-0.3-3.5l-0.9,0.6l-2.3-1.2l-0.9-0.6l0.4-3.2l0.6-3.8l-0.7-1.4l0.9-2l0.9-0.4l4.3-0.6l1.2,0.3l1.3,0.8l1.3,0.6l2,0.5
			L691.2,570.1z"/>
		<path class="st0" d="M686.2,612.9l-1.7-0.3l-1.1,0.4l-1.5-0.6h-1.3l-2-1.5l-2.4-0.5l-0.9-2.1V607l-1.4-0.4l-3.6-3.6l-1-1.9
			l-0.6-0.6l-1.2-2.7l3.5,0.4l1,0.4h1.1l1.8-2.1l2.8-2.7l1.1-0.3l0.4-1.1l1.8-1.3l2.3-0.5l0.2,1.2h2.7l1.5,0.7l0.7,0.8l1.5,0.2
			l1.6,1.1v4.2l-0.6,2.3l-0.1,2.5l0.5,1l-0.3,2l-0.5,0.3l-0.8,2.4L686.2,612.9z"/>
		<polygon class="st1" points="173.6,333.4 173.6,333.4 171.8,331.3 169,329.5 168.1,324.6 164.1,320 162.4,314.4 159.3,314 
			154.3,313.9 150.5,312.1 144,305.8 141,304.6 135.4,302.3 131,302.8 124.8,299.9 121.1,297.2 117.6,298.5 118.2,303 116.4,303.4 
			112.8,304.7 110,306.8 106.5,308.1 106,304.5 107.4,298.2 110.8,296.2 109.9,294.5 105.9,298.2 103.7,302.5 99.1,306.9 
			101.4,309.9 98.4,314.2 95,316.7 91.9,318.5 91.1,321.1 86.1,324.1 85.1,326.7 81.4,329.1 79.2,328.6 76.3,330.2 73,332.1 
			70.4,333.9 64.9,335.5 64.4,334.6 67.9,332 71,330.3 74.4,327.2 78.3,326.6 79.9,324.3 84.3,320.9 85,319.7 87.3,317.6 87.9,313 
			89.5,309.4 85.9,311.3 84.8,310.2 83.1,312.5 81.1,309.4 80.2,311.8 79,308.7 75.9,311.2 73.9,311.2 73.6,307.5 74.2,305.2 
			72.2,302.9 68,304.1 65.4,301.1 63.2,299.6 63.2,295.9 60.8,293.1 62,289.2 64.6,285.4 65.7,281.8 68.3,281.3 70.5,282.5 
			73.1,279.1 75.4,279.7 77.7,277.4 77.1,274.1 75.3,272.8 77.6,270 75.7,270 72.3,271.6 71.4,273.2 68.9,271.6 64.4,272.4 
			59.8,270.7 58.4,267.7 54.4,263.2 58.9,260 65.9,256.1 68.6,256.1 68.2,260.1 74.9,259.8 72.3,254.9 68.5,252 66.1,247.8 
			63.1,244.2 58.8,241.5 60.5,236.9 66.1,236.7 70.2,232.7 70.9,228.2 74.2,223.8 77.2,222.7 83.2,218.5 86.2,219.1 91,213.9 
			95.8,216 98.1,220.4 99.5,218.5 104.9,219.1 104.7,221.4 109.5,223 112.8,222.1 119.5,225 125.6,225.9 128,227.1 132.2,225.6 
			137,228.4 140.5,229.6 140.5,301 143.6,301.1 146.7,302.9 149,305.7 151.8,309.7 154.9,306.3 158.1,304.3 159.7,307.5 161.9,310 
			164.8,312.7 166.8,317 170,323.6 175.4,327.2 175.4,330.8 		"/>
		<polygon class="st0" points="372.5,372.2 371.1,370.9 369,371.7 367.9,370.5 365.6,374 364.6,377.5 363.5,379.6 362.1,380.3 
			361.1,380.5 360.8,381.6 349.9,381.6 348.5,382.4 345.3,385.6 345.6,386.2 345.8,388 343.5,389.4 340.9,389 338.4,388.9 
			336.9,389.4 337.2,390.7 337.2,390.7 337.2,391.1 334.4,393.6 332.1,394.9 330.5,395.4 328.6,396.6 326.3,397.2 324.7,397 
			322.8,396.1 323.9,394.4 324.5,392.9 326,390.6 325.9,388.9 325.3,386.3 324.1,385.9 322.2,387.8 321.5,387.8 321.4,386.7 
			323.1,384.9 323.4,382.9 323.2,380.9 320.9,379.1 318.2,378.2 317.7,379.9 317,380.4 316.4,382.7 316.1,381.2 314.9,382.3 
			314.1,383.8 313.3,385.9 313.1,387.8 314.2,390.5 314.2,393.3 312.9,395.4 312.2,396 311.4,396.4 310.3,396.4 310,396.2 
			309.1,393.9 309.1,392.8 309.1,391.7 308.7,389.6 309.3,387.1 310.1,384 311.7,380.6 311.2,380.6 308.9,383.5 308.5,382.9 
			309.7,381.3 311.6,378.4 313.8,378 316.3,377.1 318.8,377.6 318.8,377.6 321.5,377.2 320,375.4 319.1,375.2 318.1,375 
			317.5,373.7 314.3,374.2 311.5,375.2 309.2,373.4 307.4,372.8 308.4,370.4 305.6,371.9 303.1,373.4 300.6,374.6 298.7,373 
			295.5,374 295.5,373.3 297.7,371.4 300,369.5 303.2,368 299.3,366.7 296.7,367.4 293.7,365.9 290.4,365.1 288.1,364.8 287.1,364 
			286.6,361.4 285.5,361.4 285.5,363.2 197.8,363.2 198.9,367.1 199.4,371 198.6,372.2 196.9,367.8 192.3,366.2 191.9,367.1 
			192.9,369.4 193.9,373.4 194.4,379.5 194.1,383.6 193.7,387.6 192.4,391.6 193.4,394.9 193.4,398.5 192.7,402 194.4,404.3 
			194.9,407.6 197.7,410.9 199.1,412.2 199.1,413.1 201.7,418.6 204.6,422.5 205,424.7 205.8,425.3 208.7,425.7 209.8,426.7 
			211.6,426.9 212,428 213.4,428.4 215.5,430.6 216,432.5 219.6,432.2 223.6,431.8 223.3,432.5 228.1,434.3 235.4,437 244.3,437 
			244.3,435.4 249.7,435.4 250.9,436.7 252.5,437.9 254.4,439.5 255.5,441.4 256.3,443.4 257.9,444.5 260.5,445.6 262.5,442.8 
			265.1,442.8 267.4,444.2 269,446.7 270.1,448.8 272,450.8 272.7,453.3 273.6,455 276,456 278.4,456.8 279.6,456.8 279,455.6 
			278.8,453.9 278.8,451.4 279.6,449.8 281.3,448.1 284.4,446.6 287.3,443.9 290,443 292,442.8 294.3,443.6 297,443.2 299.3,445.1 
			301.7,445.1 302.8,444.4 304,444.9 304.6,444.4 303.9,443.7 303.9,442.2 303.4,441.3 304.7,440.7 307,440.4 309.8,440.9 
			313.4,440.4 315.4,441.3 316.9,443 317.5,443.2 320.7,441.5 321.9,442.1 324.4,445.1 325.3,447.1 324.6,449.4 325.1,450.8 
			326.6,453.5 328.3,456.5 329.5,457.3 330,458.8 331.6,459.3 332.5,458.8 333.3,456.7 333.4,455.3 333.4,453 331.9,448.9 
			331.9,447.3 330.5,444.8 329.5,441.7 329.2,439.1 329.6,436.5 331.1,434.2 332.9,432.5 336.4,430 336.9,428.7 338.5,427.4 
			340.1,427.1 342.1,424.8 345.4,423.7 347.4,420.8 347,416.9 346.7,415.5 345.8,415.2 345.6,411.5 343.4,410.2 345.5,410.8 
			344.9,408.2 345.5,406.5 345.8,409.8 347.5,411.4 346.5,414.1 346.8,414.3 348.5,411.1 349.6,409.5 349.6,408 348.8,407.3 
			348.1,405 349.2,406 349.9,406.2 350.1,407.2 352.4,404.1 353.1,401.1 352.1,401 353.1,399.8 353.1,400.3 355.1,400.3 
			359.6,399.1 358.6,398.3 354,399.1 356.7,397.9 358.5,397.7 359.9,397.5 362.2,396.7 363.7,396.7 365.9,396 366.1,394.8 
			365.2,393.9 365.5,395.4 364.2,395.4 363.1,393.1 363.1,390.8 363.7,389.8 365.4,387.3 368.7,386 372,384.4 375.4,382.3 
			374.8,380.8 372.7,378.3 		"/>
		<polygon class="st1" points="101.6,315.3 99.9,316.2 97,318.3 97.5,321 99.1,322.5 102.3,320.2 105,317.4 103.7,315.6 		"/>
		<polygon class="st1" points="50,283 52.3,281.6 52.6,280.8 50,280 		"/>
		<polygon class="st1" points="59.6,300.4 56.5,301.5 58.4,303.2 60.5,304.3 62.4,303.4 62.1,300.9 		"/>
		<polygon class="st1" points="169.7,337.1 166.6,337.5 165.1,336.9 165,338.6 165.5,340.9 167.2,342.5 168.3,344.8 170.2,347.1 
			171.5,347.1 168.7,343 		"/>
		<polygon class="st1" points="92,473.5 90.9,473.2 90.6,473.5 90.6,473.8 91,474 91.5,474.7 92.6,474.5 92.8,474.1 		"/>
		<polygon class="st1" points="88.6,472.9 90.4,472.9 90.4,472.6 88.8,472.4 		"/>
		<polygon class="st1" points="95.3,476.7 94.7,476.4 93.5,475.8 93.3,475.8 93.1,476.1 93.3,476.8 92.8,477.3 92.6,477.7 
			93.1,478.9 93.1,479.8 93.9,480.3 94.4,479.8 95.4,479.2 96.6,478.5 96.6,478.3 95.8,477.2 		"/>
		<polygon class="st1" points="86.4,470.8 85.6,471.3 85.7,471.4 86.1,472.2 87.2,472.3 87.4,472.3 87.6,472.1 86.7,471 		"/>
		<polygon class="st1" points="81.4,469.1 81,469.5 80.8,469.7 81.9,470.4 82.2,470 82.2,469.2 		"/>
		<path class="st1" d="M404.7,640.9l2.1-0.4l3.2,2.8h1.2l3.3,2.3l2.5,2.1l1.8,2.5l-1.4,1.8l0.9,2.1l-1.4,2.3l-3.6,2.1l-2.3-0.8
			l-1.7,0.4l-2.9-1.7l-2.1,0.1l-1.9-2.1l0.3-2.4l0.7-0.8v-3.7l0.9-3.8L404.7,640.9z"/>
		<path class="st0" d="M534.5,497.7l-1.3-2.5l-1.6-1.2l1.4-0.6l1.5-2.3l0.7-1.7l1.1-1.1l1.6,0.3l1.5-0.7h1.8l1.5,1l2.1,0.9l1.9,2.3
			l2.1,2.3l0.1,2l0.6,1.8l1.2,0.9l0.3,1.2l-0.1,1l-0.5,0.2l-1.7-0.3l-0.2,0.3h-0.7l-2.3-0.8h-1.5l-5.9-0.1l-0.9,0.4h-1.1l-1.7,0.5
			l-0.5-2.5h2.9l0.8-0.5h0.6l1.2-0.7l1.4,0.7h1.4l1.4-0.7l-0.6-0.9l-1.1,0.6h-1l-1.2-0.8h-1l-0.7,0.8L534.5,497.7z"/>
		<path class="st0" d="M749.5,503.7v-0.9h-1.2l-1.5,1.1l-1.7,0.3l-1.5,0.5h-1h-1.8l-1.1,0.6l-1.6,0.2l-2.8,1l-3.4,0.4l-3,0.8h-1.6
			l-1.4-1.3l-0.6-1.3l-1-0.6l-1.2,1.7l-0.7,1.1l1.2,1.8l1.2,1.5l1.2,1.1l10.4,3.8h2.7l-9,9.5l-4.1,0.1l-2.8,2.3h-2l-0.9,1l-2.8,3.6
			v11.5l1.9,2.6l0.7-0.7l0.7-1.7l3.5-3.8l3-2.3l4.8-3.1l3.2-2.6l3.7-4.3l2.7-3.5l2.7-4.6l2-4.1l1.5-3.6l0.9-3.4l0.7-1.2v-1.7
			L749.5,503.7z"/>
		<path class="st1" d="M548.8,494.5l-2.1-2.3l-1.9-2.3l-2.1-0.9l-1.5-1h-1.8l-1.5,0.7l-1.6-0.3l-1.1,1.1l-0.3-1.8l0.9-1.6l0.4-3.1
			l-0.3-3.3l-0.4-1.7l0.3-1.7l-0.8-1.6l-1.7-1.5l0.7-1.1h12.4l-0.6-4.9l0.8-1.8l3-0.3v-8.9l10.4,0.2v-5.4l11.9,8.5H567l1.5,14.8
			l1.5,14.3l0.6,0.4l-0.7,2.3h-12.7l-0.5,0.7l-1.2-0.2l-1.8,0.6l-2.3-0.9h-1l-0.5,1.9L548.8,494.5z"/>
		<path class="st1" d="M696.9,577.6l-0.9,2.3l0.9,4.2h1.1l1.1,1l1.3,2.3l0.3,4.2l-1.4,0.7l-1,2.3l-2.1-2l-0.2-2.3l0.7-1.5l-0.2-1.3
			l-1.2-0.8l-0.9,0.3l-1.8-1.6l-1.7-0.8l1-3l1-1.1l-0.6-2.7l0.6-2.6l0.6-0.9l-0.8-2.7l-1.5-1.4l3.1,0.6l0.6,0.9l1.1,1.5L696.9,577.6
			z"/>
		<path class="st1" d="M545.9,450.1L545.9,450.1h-0.1l0,0l-2,3.6l-2.1,1.3l-1.2,2.2v1.9l-0.9,2l-1.1,0.6l-1.8,2.3l-1.1,2.4l0.2,1.2
			l-1,1.8l-1.2,0.9l-0.1,1.6l-0.1,1.4l0.7-1.1h12.4l-0.6-4.9l0.8-1.8l3-0.3v-8.9l10.4,0.2v-5.3v-0.7v-0.2L545.9,450.1z"/>
		<path class="st0" d="M721.6,501.1l-1.1-1.1l-1.3-1.9l-1.4-1L717,496l-2.8-1.3h-2.1l-0.8-0.7l-1.8,0.8l-1.9-1.5l-1,2.4l-3.7-0.7
			l-0.3-1.3l1.4-4.8l0.3-2.2l1-1l2.3-0.6l1.6-1.9l1.8,3.8l0.9,3l1.7,1.6l4.3,3.1l1.8,1.8l1.7,1.9l1,1.1l1.6,1l-1,0.8L721.6,501.1z"
			/>
		<path class="st0" d="M361.2,503.6v0.8l-1.9,0.4l1,1.5v1.7l-1.4,1.8l1.2,2.5l1.4-0.2l0.7-2.3l-1-1.1l-0.2-2.3l3.9-1.3l-0.4-1.5
			l1.1-1l1.1,2.3h2.3l2.1,1.8l0.1,1.1h2.8l3.4-0.3l1.8,1.4l2.3,0.4l1.8-1v-0.8l3.9-0.2h3.8l-2.7,0.9l1.1,1.5l2.5,0.2l2.3,1.6
			l0.5,2.6h1.7l1.2,0.8l-2.5,1.9l-0.3,1.2l1.1,1.2l-0.8,0.6l-2,0.5v1.5l-0.9,0.9l2.1,2.3l0.4,0.9l-1.2,1.2l-3.6,1.2l-2.3,0.5
			l-0.9,0.7l-2.5-0.8l-2.3-0.4l-0.6,0.3l1.4,0.8l-0.1,2.1l0.4,2l2.7,0.3l0.2,0.6l-2.3,0.9l-0.4,1.3l-1.3,0.5l-2.3,0.7l-0.6,1
			l-2.5,0.2l-1.8-1.7l-1-3.1l-0.9-1.1l-1.2-0.7l1.6-1.6v-0.7l-0.9-0.9l-0.6-2.1l0.3-2.3l0.7-1.1l0.6-1.7l-1.1-0.6l-1.8,0.4l-2.3-0.2
			l-1.3,0.3l-2.3-2.7l-1.8-0.4l-4.1,0.3l-0.8-1.1l-0.8-0.3v-0.7l0.4-1.2l-0.3-1.3l-0.7-0.7l-0.4-1.5l-1.6-0.2l0.9-1.9l0.4-2.3
			l0.9-1.2l1.2-0.9l0.8-1.6L361.2,503.6z"/>
		<path class="st0" d="M929.9,471.4l-4.2,2.9l-2.7,3.2l-0.7,2.3l2.4,3.5l3,4.3l2.9,2l1.9,2.6l1.5,6l-0.4,5.7l-2.6,2.1l-3.6,2.1
			l-2.6,2.7l-4,3l-1.2-2.1l0.9-2.2l-2.3-1.8l2.7-1.3l3.3-0.2l-1.4-2l5.3-2.5l0.4-3.9l-0.7-2.2l0.6-3.3l-0.8-2.3l-2.3-2.3l-2-2.9
			l-2.6-3.9l-3.8-2l0.9-1.2l2-0.9l-1.2-2.9h-3.9l-1.4-3.1l-1.8-2.7l1.7-0.8h2.5l3.1-0.4l2.7-1.8l1.5,1.3l2.9,0.6l-0.5,2l1.5,1.4
			L929.9,471.4z"/>
		<path class="st0" d="M834.1,421.2l3.4,4.6l-0.3,3.1l1.2,1.9v1.9l-2.3-0.5l0.9,4.1l3.1,2.3l4.4,2.6l-2,1.7l-1.2,3.2l3.1,1.4l3,1.8
			l4.1,2l4.3,0.5l1.8,1.8l2.4,0.3l3.8,0.8h2.6l0.4-1.4l-0.4-2.3l0.3-1.5l1.9-0.8l0.3,2.8v0.7l2.9,1.3l2-0.6l2.7,0.2h2.6l0.2-2.2
			l-1.3-1.1l2.6-0.5l2.9-2.7l3.6-2.3l2.7,0.9l2.3-1.5l1.5,2.3l-1.1,1.5l3.4,0.5l0.3,1.4l-1.1,0.6l0.3,2.2l-2.3-0.6l-4.1,2.4v2
			l-1.7,2.9l-0.2,1.7l-1.4,2.8l-2.5-0.8l-0.1,3.6l-0.7,1.2l0.3,1.5l-1.6,0.8l-1.7-5.4h-0.9l-0.5,2.3l-1.7-1.8l1-2l1.4-0.2l1.5-2.9
			l-1.8-0.6h-3l-3-0.5l-0.3-2.4l-1.5-0.2l-2.5-1.5l-1.1,2.3l2.3,1.8l-2,1.3l-0.7,1.3l1.9,0.9l-0.5,2.1l1,2.5l0.5,2.8l-0.5,1.2h-2.1
			l-3.9,0.7l0.2,2.5l-1.7,2l-4.6,2.3l-3.6,3.9l-2.3,2.1l-3.2,2.2v1.5l-1.6,0.8l-2.9,1.2l-1.5,0.2l-0.9,2.5l0.6,4.2l0.2,2.7l-1.3,3.1
			v5.5l-1.6,0.2l-1.4,2.4l1,1.1l-2.9,0.9l-1.1,2.2l-1.3,0.9l-3-3l-1.5-4.5l-1.2-3.2l-1.1-1.5l-1.7-3.1l-0.8-4l-0.6-2l-2.7-4.6
			l-1.3-6.4l-0.9-4.3v-4l-0.6-3.2l-4.6,2l-2.3-0.4l-4.1-4.1l1.5-1.2l-0.9-1.3l-3.7-2.9l2.1-2.3h6.9l-0.6-3l-1.8-1.8l-0.4-2.7
			l-2.1-1.6l3.5-3.7l3.7,0.3l3.3-3.8l2-3.7l3.1-3.7v-2.6l2.7-2.2l-2.6-1.8l-1.1-2.5l-1.1-3.3l1.5-1.7l4.8,0.9l3.5-0.6L834.1,421.2z"
			/>
		<path class="st1" d="M348.4,541.4l-1.4-0.7l-1.6-1l-0.9,0.5l-2.7-0.4l-0.8-1.4h-0.6l-3.2-1.8l-0.4-1l1.2-0.2l-0.1-1.6l0.7-1.1
			l1.6-0.2l1.3-2l1.2-1.7l-1.2-0.8l0.6-1.8l-0.7-2.9l0.7-0.8l-0.5-2.7l-1.3-1.7l0.4-1.5l1,0.2l0.6-0.9l-0.7-1.9l0.4-0.5h1.6l2.3-2.3
			l1.3-0.3v-1.1l0.6-2.7l1.8-1.5h2l0.3-0.7l2.5,0.3l2.5-1.6l1.2-0.7l1.5-1.5l1.1,0.2l0.8,0.9l-0.6,1.1l-2,0.6l-0.8,1.6l-1.2,0.9
			l-0.9,1.2l-0.4,2.3l-0.9,1.9l1.6,0.2l0.4,1.5l0.7,0.7l0.3,1.3l-0.4,1.2v0.7l0.8,0.3l0.8,1.1l4.1-0.3l1.8,0.4l2.3,2.7l1.3-0.3
			l2.3,0.2l1.8-0.4l1.1,0.6l-0.6,1.7l-0.7,1.1l-0.3,2.3l0.6,2.1l0.9,0.9v0.7l-1.6,1.6l1.2,0.7l0.9,1.1l1,3.1l-0.6,0.4l-0.6-1.9
			l-0.9-1l-1.1,1.1h-6.2v2l1.8,0.3v1.2l-0.6-0.3l-1.8,0.5v2.3l1.4,1.2l0.5,1.8v1.4l-1.4,8.7l-1.6-1.7h-0.9l2.1-3.2l-2.4-1.5
			l-1.9,0.3l-1.1-0.6l-1.8,0.8l-2.3-0.4l-1.9-3.3l-1.5-0.8l-1-1.5l-2.1-1.5L348.4,541.4z"/>
		<path class="st0" d="M1001.5,393l0.4,0.8l-1.2-0.3l-1.4,1.4l-0.9,1.5l0.1,3l-1.6,0.9l-0.6,0.7l-1.2,1.2L993,403l-1.4,1.1v1.8
			l-0.4,0.5l1.3,0.6l1.8,1.8l-0.5,1l-1.3,0.3l-2.3,0.2l-1.2,1.8l-1.4-0.1l-0.2,0.4l-1.5-0.8l-0.4,0.7l-0.9,0.3v-0.7l-0.8-0.4
			l-0.9-0.6l0.9-1.8l0.7-0.5l-0.3-0.7l0.8-2.3l-0.2-0.7l-1.8-0.5l-1.5-1.1l2.6-2.7l3.5-2.3l2.2-3l1.5,1.3l2.7,0.2l-0.5-2.3l4.8-1.4
			l1.3-2.3L1001.5,393z"/>
		<path class="st0" d="M994.2,408.8l2.7,4.6l0.8,2.6v4.6l-1.2,2.1l-2.9,0.7l-2.5,1.6l-2.9,0.3l-0.3-2.1l0.6-2.9l-1.4-4.1l2.3-0.7
			l-2.2-3.4l0.2-0.4l1.4,0.1l1.2-1.8l2.3-0.2l1.3-0.3L994.2,408.8z"/>
		<path class="st0" d="M1014.2,426.3l0.4,1.3l-1.8,2.3l-1.3-1.2l-1.6,0.9l-0.8,2.3l-2.1-1.1V429l1.8-2.3l1.8,0.4l1.3-1.6
			L1014.2,426.3z M1034.3,414.8l-1.2,3.1l0.6,2l-1.7,2.7l-4,1.8l-5.6,0.2l-4.6,4.3l-2.1-1.5l-0.1-2.8l-5.5,0.9l-3.8,1.8h-3.7
			l3.2,2.8l-2.1,6.3l-2.1,1.5l-1.5-1.4l0.8-3.3l-2-1.1l-1.3-2.6l3-1.2l1.7-2.3l3.2-2l2.3-2.6l6.3-1.2l3.4,0.8l3.3-6.9l2.1,1.9l4.6-4
			l1.8-1.6l2-5l-0.6-4.6l1.3-2.6l3.4-0.8l1.7,5.8v3.3l-2.9,4.1L1034.3,414.8z M1043.5,385.5l2.3,0.9l2.3-1.9l0.7,4.9l-4.6,1.2
			l-2.8,4.2l-5-2.9l-1.7,4.6h-3.5l-0.4-4.2l1.6-3.3l3.4-0.2l0.9-6.1l0.8-3.6l3.7,4.6L1043.5,385.5z"/>
		<path class="st0" d="M717.3,543.7l1.9,2.6l-2.3,1.3l-0.8,1.3l-1.2,0.2l-0.4,2.3l-1,1.3l-0.6,2.1l-1.3,1l-4.6-3.2l-0.2-1.8
			l-11.5-6.4l-0.6-0.3v-3.4l0.9-1.3l1.6-2.1l1.2-2.3l-1.4-3.6l-0.4-1.6l-1.5-2.3l1.9-1.9l2.1-2.1l1.7,0.5v1.8l1.1,1h2.3l4,2.7h1h0.7
			l0.7,0.4l2.1,0.3l0.9-1.3l2.9-1.3l1.3,1.1h2.2l-2.8,3.6L717.3,543.7z"/>
		<path class="st0" d="M1190,261l-3.1,3.4l-5.2,0.8v7.3l-1.3,1.5l-3-0.2l-2.3-2.6l-4.2-2.2l-0.7-3.3l-3.2-1.2l-3.6,1l-1.7-2.7
			l0.7-2.9l-3.8,1.8l1.4,3.6l-1.8,3.2l0,0l-4.1,3.3l-4.1-0.6l2.9,3.9l1.9,5.9l1.5,1.9l0.4,2.9l-0.8,1.8l-5.9-1.5l-8.9,5.1l-2.8,0.8
			l-4.8,4.6l-4.6,4l-1.2,2.9l-4.6-4.4l-8.3,5l-1.5-2.3l-3,2.7l-4.2-0.9l-1,4.1l-3.8,5.9v2.3l3.6,1.3l-0.4,8.4l-2.9,0.2l-1.4,4.6
			l1.3,2.3l-5.5,2.8l-1.1,6.1l-4.6,1.3l-0.9,5.3l-4.6,4.6l-1.2-3.5l-1.4-7.6l-1.8-12l1.5-7.9l2.7-3.5l0.2-2.8l4.9-1.3l5.7-7.7
			l5.5-6.5l5.7-5.2l2.5-9.5l-3.9,0.6l-1.9,5.6l-8,7.2l-2.6-8.1l-8.2,2.3l-7.9,10.8l2.6,3.8l-7.1,1.6l-4.9,0.6l0.2-4.5l-4.9-0.9
			l-3.9,3l-9.7-1.1l-10.4,1.8l-10.3,11.7l-12.2,13.3l5,0.7l1.6,3.4l3.1,1.2l2-2.7l3.5,0.3l4.6,5.9v4.4l-2.5,5.1l-0.3,6l-1.4,7.8
			l-4.8,6.8l-1.1,3.2l-4.3,5.7l-4.3,5l-2.1,2.6l-4.2,2.5h-2l-2-2.1l-4.2,3.2l-0.5,1.4l-0.4-0.7v-2.2h1.6l0.5-5.1l-0.8-3.8l2.7-1.6
			l3.9,0.8l2.1-4.4l1.1-5.1l1.2-1.7l1.7-4.2l-5.2,1.4l-2.7,1.9h-4.8l-1.3-4.5l-3.8-3.4l-5.5-1.6l-1.2-4.8l-1.1-3.1l-1.2-2.3l-2-5.2
			l-2.8-1.9l-4.8-1.6l-4.2,0.1l-3.9,0.9l-2.6,2.6l1.7,1.2v2.8l-1.8,1.6l-2.9,5.3v2.2l-4.4,3.3l-3.8-1.8l-3.8,0.4l-1.7-1.7l-1.9-0.5
			l-4.6,3.5l-4.2,0.8l-2.9,1.2l-4-0.8h-2.9l-1.9-2.5l-3.1-2.3l-3.2-0.6l-4,0.6l-3,0.9l-4.6-2.1l-0.6-3.8l-3.7-1.3l-2.9-0.6l-3.6-2.1
			l-3.3,5.3l1.3,2.9l-3.1,3.4l-4.6-1.2l-3.2-0.2l-2.1-2.3h-3.3l-2.8-1.5l-4.8,2.3l-5.9,4.2l-3.3,0.8l-1.2,0.4l-1.7-3l-4.1,0.6
			l-1.3-2.1l-2.3-1l-1.5-2.9l-1.8-0.9l-4.6,1.3l-4.4-2.9l-1.7,2.6l-7.1-13.1l-4-4.1l1.2-1.7l-8,5.1l-3,0.3l0.3-2.9l-4.1-1.8L813,337
			l-1-5.7l-5.7-1.2l-2.8,2.3l-7.9,2l-1.5,1.3l-11.9,1.9l-1.5,1.8l2.3,3.6l-3,1.4l0.6,1.4l-3,2.5l5.1,3.5l-0.8,2.3l-4.5-0.2l-0.9,1.5
			l-4.1-2.6h-5L764,355l-3.8-2l-6.9-3.5l-5,0.1l-6.6,5.5l-0.4,3.6l-3.3-2.6l-2.5,5.4l0.9,1l-1.8,3.6l2.7,3.2l2.3-0.1l2,3.1l-0.3,2.3
			l1.6,0.7l-1.5,2.7l-3.1,0.7l-3.2,4.6l2.9,4.2l-0.3,2.9l3.5,5.1l-1.9,1.7l-0.6,1.1l-1.4-0.3l-2.2-2.6l-0.9-0.1l-2-1l-1-1.8l-3-0.9
			l-1.9,0.7l-0.6-0.8l-4.3-2.1l-4.6-0.7l-2.7-0.7l-0.4,0.5l-4-3.7l-3.6-1.7l-2.7-2.6l2.3-0.7l2.6-3.8l-1.8-1.8l4.6-1.9v-1l-2.8,0.7
			V370l1.6-1.3l3.1-0.3l0.5-1.6l-0.7-2.6l1.3-2.5v-1.4l-4.6-1.6h-1.8l-2-2.3l-2.4,0.8l-4-1.7v-1l-1.1-2.2l-2.5-0.3l-0.3-1.6l0.8-1
			l-2-2.9l-3.3,0.5l-1-0.3l-0.8,1.2l-1.2-0.2l-0.8-3.3l-0.7-1.7l0.6-0.5l2.6,0.2l1.2-1.2l-0.9-1.4l-2.1-0.9l0.2-1l-1.3-1l-2-3.6
			l0.7-1.5l-0.3-2.6l-3.1-1.3l-1.7,0.7l-0.5-1.4l-3.3-1.4l-1-3.4l-0.3-2.8l-1.5-1.3l1.4-1.9l-0.9-5.6l2.3-3.5L676,306l3.6-3.5
			l-3.3-3l6.8-8.4l2.9-3.9l1.2-3.5l-4.6-4.8l1.3-4.6l-2.8-5.5l2.1-6.5l-3.7-9l2.9-6.2l-4.9-5.7l0.5-6.1l2.6-0.8l5.4-3.6l3.3-3.2
			l5.2,5.5l8.7,2.1l12,9.8l2.4,4l0.2,5.4l-3.5,4.2l-5.2,2.1l-14.2-6l-2.3,1l5.2,5.8l0.2,3.6l0.2,7.6l4.1,2.3l2.5,1.9l0.4-3.5
			l-1.9-3.2l2-2.8l7.7,4.6l2.7-1.8l-2.1-5.5l7.4-7.6l2.9,0.5l3,2.7l1.8-5.4L726,250l1.5-5l-2.3-5.3l8.9,2.8l1.8,4.6l-4,1v4.6
			l2.5,2.8l4.9-1.7l0.8-5.2l6.6-4l11.1-7.4l2.3,0.4l-3.1,5.2l3.9,0.9l2.3-2.9l5.9-0.2l4.6-3.6l3.6,5.2l3.6-5.7l-3.3-5.2l1.7-3
			l9.4,2.8l4.4,2.8l11.5,9.9l2.1-4.5l-3.2-4.6v-1.9l-3.8-0.9l1-4.3l-1.7-7.3v-3.1l5.8-9l2.1-9.5l2.3-2.1l8.3,2.7l0.6,5.9l-3,8.2
			l2,3.1l1,6.7l-0.7,12.5l3.5,5.4l-1.4,5.7l-6.2,11.5l3.6,1.2l1.3-2.8l3.5-2.1l0.8-4l2.7-3.9l-1.8-4.8l1.5-5.7l-3.5-0.7l-0.8-4.9
			l2.5-9.4l-4-7.9l5.7-6.9l-0.7-7.5l1.6-0.3l1.7,5.9l-1.2,9.8l3.4,1.8l-1.5-7.2l5.3-4l6.6-0.6l5.9,5.9l-2.8-8.6l-0.3-11.5l5.5-2.3
			l7.6,0.5l6.9-1.5l-2.6-6.1l3.7-7.9l3.6-0.3l6.2-6.2l8.4-1.7l1.1-3.6l8.3-1.2l2.5,2.9l7.1-6.9l5.8,0.2l0.9-5.9l2.9-6.1l7.5-6
			l5.4,4.8l-4.3,3.5l7.2,2.2l0.9,6.9l2.9-3.3l9.2,0.2l7.2,6.6l2.5,4.9l-0.8,6.6l-3.5,3.7l-8.3,6.7l-2.3,3.5l3.9,1.6l4.6,2.9l2.8-2.2
			l1.6,7.2l1.4-2.9l5.1-1.8l10.2,1.9l0.8,5.2l13.2,1.6l0.2-8.4l6.7,2h5.1l5.1,5.8l1.5,6.9l-1.9,4.3l4,7.9l5,3.9l3.1-10.4l5.1,4.6
			l5.4-2.7l6.1,3.1l2.3-2.8l5.2,1.4l-2.3-9.5l4.2-4.6l28.6,6.9l2.7,6l8.3,7.5l12.8-1.8l6.3,1.6l2.6,4l-0.4,6.9l3.9,2.6l4.2-1.8
			l5.6-0.2l6,1.8l6-1l5.5,7.9l3.9-2.8l-2.6-5.7l1.4-4.1l10.1,2.6l6.6-0.6l9.1,4.3l4.4,3.9l7.8,6.6l8.3,8.3l-0.3,5l2.1,2l-0.7-5.8
			l8.6,1.2L1190,261z M1045.9,363.3l-3.2-8.7l-1.3-5.1v-5.1l-1.1-5.1l-0.8-3.6l-1.4,0.8l1.2,2.5l-2.9,2.4l-0.3,7.1l1.8,5l-0.1,6.6
			l-0.7,3.7l0.4,5.1l-0.3,4.6l0.6,3.9l2.1-3.5l2.3,2.8v-3.2l-3.1-4.8l1.9-6.9L1045.9,363.3z M658.1,332.2l-3.3-1l-4.4,1.8l-0.7,2.3
			l3.9,0.6h5.8l-0.3-1.4l0.3-1.5L658.1,332.2z M1158,219l4.1-0.6l3.3-2.3l0.3-1.3l-4.6-2.8h-2.7l-0.4,0.4l-4,4.1l0.6,3.1L1158,219z
			 M1033.8,188.4l-3,4.4l0.6,0.6l6.5,1.2h4.8l-0.4-2.9l-4.6-4.3L1033.8,188.4z M1061.4,177.6l3.7-4.8l-8-3.3l-5.9-1.9l-0.8,4.1
			l5.9,4.8L1061.4,177.6z M1033,175.7l11.7,0.3l2.5-9.2l-11.5-6.9l-8.4-0.6l-4.2,2.5l-1.7,8.8l6.5,7.9L1033,175.7z M753.7,205
			l-3.3,2.3l0.5,5.5l5.8,2.6l0.8,4.3l10.4,1.2l1.9-0.8l-6.1-8l-0.6-8.5l5-10.3l4.6-11.1l9.9-11.5l9.8-6l11.2-6.5l2.1-4.2l-2.3-5.5
			l-6.2,1.8l-5.3,5.1l-10.5,2.4l-10.5,8.4l-7.1,6.6l0.9,5.5l-7.6,10.2l2.9,1.4l-6.3,9.3V205z M920.5,128.2l0.9-6.5l-8-9.4l-2.3-1.1
			l-2.6,1.9l-5.8,21L920.5,128.2z M734.8,95.1l3.4,4.4l3.7-3l0.4-3.1l2.8-1.4l4.2-2.5l1.2-3l-4.6-4.4l-3,3.3l-1.8,4.6l-0.6-5.3
			l-4.8,0.2l-6.3,3.5l7.1,0.6L734.8,95.1z M883.2,109.8l5.3,6.5l8.8,4.8l6.9-2l0.8-15.4l-7.3-18.1l-6.2-10.2l-6.9,4.6l-8.2,13.4
			l4.3,3.7L883.2,109.8z"/>
		<path class="st1" d="M683.8,544.5l1.3,1.8l-0.2,1.8l-0.9,0.4l-1.7-0.2l-1,1.8l-1.9-0.3l0.3-1.7l0.4-0.2v-1.9l0.9-0.9l0.8,0.3
			L683.8,544.5z"/>
		<path class="st0" d="M635,352.8l-1.3-3.2l0.3-1.8l-0.8-2.8l-1.1-1.9l0.9-1.4l-0.7-2.7l2.2-1.6l4.9-2.5l4-1.8l3.2,0.9l0.2,1.3h3.1
			l3.9,0.6h5.8l1.6,0.6l0.8,1.7l0.1,2.3l0.9,2v2.1l-1.9,1.1l1,2.3v2.3l1.6,4.4l-0.3,1.4l-1.6,0.6l-2.9,4.1l0.8,2.2l-0.7-0.3l-3-1.8
			l-2.3,0.7l-1.5-0.5l-1.9,1l-1.6-1.7l-1.3,0.6l-0.2-0.3l-1.5-2.3l-2.3-0.3l-0.3-1.5l-2.2-0.6l-0.5,1.3l-1.7-1l0.2-1.4l-2.3-0.4
			L635,352.8z"/>
		<path class="st0" d="M825.6,414.7l2.3,1.8l0.9,3l5.2,1.6l-3.1,3.2l-3.5,0.6l-4.8-0.9l-1.5,1.7l1.1,3.3l1.1,2.5l2.6,1.8l-2.7,2.2
			v2.6l-3.1,3.7l-2,3.7l-3.3,3.8l-3.7-0.3l-3.5,3.7l2.1,1.6l0.4,2.7l1.8,1.8l0.6,3h-6.9l-2.1,2.3l-2.3-0.9l-0.9-2.5l-2.4-2.7
			l-5.8,0.6h-5.1l-4.5,0.5l1.2-4.1l4.6-1.8l-0.3-1.6l-1.5-0.6V448l-3-1.6l-1.3-2.2l-1.6-1.9l5.3,1.8l3.2-0.6l1.9,0.5l0.6-0.8
			l2.3,0.3l4.1-1.5V439l1.8-2.1h2.3l0.3-1l2.4-0.5l1.2,0.3l1.2-1l-0.2-2.3l1.3-2.3l2-1l-1.2-2.5l3,0.1l0.9-1.4l-0.1-1.5l1.6-1.6
			l-0.4-1.9l-0.7-1.7l1.8-1.7l3.4-0.8l3.6-0.5l1.6-0.7L825.6,414.7z"/>
		<path class="st0" d="M638.7,373.3l1.1-3l-0.6-1h1.8l0.2-1.9l1.6,1.2l1.2,0.5l2.7-0.6l0.3-0.9l1.3-0.1l1.5-0.7l0.3,0.3l1.5-0.6
			l0.7-1.1l1-0.3l3.4,1.5l0.7-0.5l1.8,1.3l0.2,1.3l-1.9,1l-1.5,3.2l-1.9,3.1l-2.5,0.9l-2-0.2l-2.4,1.2l-1.2,0.7l-2.6-0.9l-2.3-2
			l-1-0.6l-0.6-1.5L638.7,373.3z"/>
		<path class="st0" d="M725.5,398.6l4.4-0.6l0.6,1.1l1.2,0.7l-0.6,1l1.7,1.4l-0.9,1.3l1.3,1.1l1.4,0.7v2.8h-1.2l-1.3-2.3v-0.6h-1.4
			l-0.9-1.1h-0.6L728,403l-2.3-1l0.3-2L725.5,398.6z"/>
		<path class="st0" d="M694.9,422.1l2.1-1.7l-2.9,1.2h-2.3l-0.5,0.9h-0.2l-1.5,0.1l0.7,1.5l1.5,0.5l3.3-1.6v-0.3L694.9,422.1z"/>
		<path class="st0" d="M641.1,365.1l-1.5-0.9l-1.5,0.3l-2.5-1.5l-1.1,0.4l-1.8,2l-2.3-1.5l-1.8-2.1l-1.6-1.2l-0.3-2.1l-0.6-1.5
			l2.3-1.1l1.2-1.2l2.3-1l0.8-0.9l0.8,0.6l1.4-0.5l1.5,1.6l2.3,0.4l-0.2,1.4l1.7,1l0.5-1.3l2.2,0.6l0.3,1.5l2.3,0.3l1.5,2.3h-0.9
			l-0.5,0.9l-0.7,0.2l-0.2,1.1l-0.6,0.2v0.4L643,364h-1.4L641.1,365.1z"/>
		<path class="st0" d="M698.1,443.6l-0.9,1.5l-0.7,2.7l-0.9,1.8l-0.7,0.6l-1.1-1.2l-1.4-1.6l-2.3-5.2l-0.3,0.3l1.3,3.8l1.9,3.6
			l2.3,5.5l1.2,1.9l1,2l2.8,3.9l-0.6,0.6v2.3l3.7,3.1l0.6,0.7h-37.6v-25.4l-0.9-2.9l0.8-2.3l-0.5-1.6l1.1-1.8h4.2l3,1l3.1,1.1
			l1.5,0.6l2.4-1.2l1.3-1.1l2.8-0.3l2.3,0.5l0.9,1.8l0.7-1.2l2.5,0.9l2.5,0.2l1.6-0.9L698.1,443.6z"/>
		<path class="st0" d="M558.7,395.3l0.2-3l-1.3-1.9l4.5-3.1l3.9,0.8h4.3l3.4,0.7l2.6-0.2l5.1,0.1l1.3,1.7l5.8,2l1.2-0.9l3.6,1.9
			l3.7-0.6l0.2,2.5l-3,2.8L590,399l-0.3,1.4l-2,2.3l-1.2,3.3l1.2,2.3l-1.8,1.8l-0.7,2.6l-2.3,0.8l-2.3,3h-4h-3l-2,1.4l-1.2,1.5
			l-1.6-0.3l-1.2-1.3l-0.9-2.3l-3-0.6l-0.3-1.3l1.2-1.5l0.4-1.1l-1.1-1.2l0.9-2.7l-1.3-2.4l1.4-0.3l0.1-1.9l0.5-0.6v-3.3l1.5-1.1
			l-0.9-2.1l-1.8-0.1l-0.6,0.5H562l-0.8-2.1l-1.3,0.6L558.7,395.3z"/>
		<path class="st1" d="M633.3,500.1l0.3-1.5h-2v-2.1l-1.3-1.2l1.4-4.3l4-3.1l0.2-4.3l1.2-6.8l0.7-1.5l-1.3-1.2v-1.1l-1.2-0.9
			l-0.8-5.3l3.2-1.9l12.6,6.5l12.6,6.4l0.2,13.1l-2.7-0.2l-1.5,2.3l-0.8,2l0.6,0.8l-1,1l0.4,1.3l-0.8,1.4l-0.3,1.2l1.1-0.2l0.6,1.2
			v1.9l1.2,0.9v0.8l-2,0.6l-1.6,1.3l-2.3,3.5l-3,1.5l-3.1-0.2l-0.9,0.3l0.3,1.1l-1.7,1.1l-1.3,1.2l-4,1.2l-0.8-0.7H639l-0.6,0.8
			l-2.6,0.3l0.5-0.9l-1-2.2l-0.5-1.3l-1.4-0.6l-1.9-1.9l0.7-1.5l1.5,0.3l0.9-0.2h1.8l-1.7-2.9v-2.1l-0.2-2.1L633.3,500.1z"/>
		<path class="st1" d="M805.9,716.9l2,1.5l3,0.6v0.9l-0.9,2.3l-4.9,0.3V720l0.5-2L805.9,716.9z"/>
		<path class="st1" d="M388.7,612.8l1.2-4.1V607l1.5-3l5.5-1h2.9l3,1.7v1l0.9,1.9l-0.2,4.6l3.3,0.6l1.3-0.7l2.1,0.9l0.6,1l0.3,3.1
			l0.4,1.3l1.2,0.1l1.2-0.6l1.1,0.6v1.9l-0.4,2.1l-0.6,2l-0.5,3.1l-2.7,2.7l-2.5,0.6l-3.6-0.6l-3.2-1l3.1-5.4l-0.5-1.5l-3.3-1.4
			l-3.9-2.6l-2.6-0.5L388.7,612.8z"/>
		<path class="st0" d="M748.4,460.4l-0.2-2.5l0.9-1.8l0.9-0.4l1,1.1v2.1l-0.7,2.1l-0.9,0.3L748.4,460.4z"/>
		<path class="st0" d="M404.7,640.9l4.2-4.9l3.6-3.5l2.1-1.5l2.7-2v-2.8l-1.6-2l-1.6,0.7l0.6-2l0.4-2.1v-1.9l-1.1-0.6l-1.2,0.6
			l-1.2-0.1l-0.4-1.3l-0.3-3.1l-0.6-1l-2.1-0.9L407,613l-3.3-0.6l0.2-4.6l-0.9-1.9l1-0.7l-0.3-1.9l0.9-1.5l0.6-2.6l-0.8-2.1
			l-1.7-0.9l-0.3-1.3l0.5-1.9l-6.1-0.1l-1.2-3.8h0.9v-1.4l-0.6-0.9l-0.1-1.9l-1.8-1h-2l-1.3-0.9l-2.1-0.6l-1.2-1.2l-3.6-0.5l-3.4-3
			l0.3-2.1l-0.4-1.2l0.3-2.3l-4.2,0.6l-1.7,1.2l-2.8,1.3l-0.7,1h-1.6l-2.3-0.3l-1.8,0.6l-1.5-0.4l0.2-4.9l-2.6,1.9h-2.8l-1.2-1.7
			l-2.1-0.2l0.7-1.4l-1.8-1.9l-1.3-2.9l0.8-0.6v-1.3l1.9-0.9l-0.3-1.7l0.8-1.1l0.2-1.5l3.6-2.2l2.6-0.6l0.4-0.5l2.9,0.1l1.4-8.7
			v-1.4l-0.5-1.8l-1.4-1.2v-2.3l1.8-0.5l0.6,0.3v-1.2l-1.8-0.3v-2h6.2l1.1-1.1l0.9,1l0.6,1.9l0.6-0.4l1.8,1.7l2.5-0.2l0.6-1l2.3-0.7
			l1.3-0.5l0.4-1.3l2.3-0.9l-0.2-0.6l-2.7-0.3l-0.4-2l0.1-2.1l-1.4-0.8l0.6-0.3l2.3,0.4l2.5,0.8l0.9-0.7l2.3-0.5l3.6-1.2l1.2-1.2
			l-0.4-0.9l1.7-0.1l0.7,0.7l-0.4,1.4l1.1,0.5l0.7,1.5l-0.9,1.1l-0.5,2.7l0.8,1.6l0.2,1.5l2,1.5l1.6,0.2l0.3-0.6l1-0.1l1.4-0.6
			l1-0.8l1.8,0.3h0.8l1.7,0.3l0.3-0.6l-0.5-0.6l0.3-0.9l1.3,0.3l1.5-0.3l1.8,0.7l1.4,0.6l1-0.9l0.7,0.1l0.4,0.9l1.5-0.2l1.2-1.2
			l1-2.3l1.9-2.9l1.1-0.1l0.8,1.7l1.8,5.5l1.7,0.5v2.2l-2.3,2.6l1,0.9l5.6,0.5v3.2l2.3-2.1l4,1.1l5.3,1.9l1.5,1.8l-0.5,1.7l3.7-1
			l6.2,1.7l5.2-0.3l4.6,2.6l4,3.5l2.4,0.9l2.7,0.1l1.2,1l1.1,4l0.5,1.9l-1.3,5.3l-1.6,2.1l-4.5,4.6l-2,3.6l-2.3,2.8h-0.8l-0.9,2.3
			l0.2,6.1l-0.9,5.1l-0.3,2.2l-1,1.3l-0.6,4.5l-3.2,4.4l-0.6,3.5l-2.6,1.5l-0.7,2.1h-3.4l-5,1.3l-2.3,1.5l-3.6,1l-3.7,2.8l-2.7,3.5
			l-0.5,2.6l0.5,2l-0.6,3.6l-0.7,1.8l-2.3,2l-3.5,6.4l-2.8,2.9l-2.2,1.7l-1.4,3.6L418,654l-0.9-2.1l1.4-1.8l-1.8-2.5l-2.5-2.1
			l-3.3-2.3h-1.2l-3.2-2.8L404.7,640.9z"/>
		<path class="st1" d="M341.6,463.9l-0.8,0.2l-0.8-2l-1.2-1l0.7-2.3l0.9,0.1l1.1,2.9L341.6,463.9z M340.7,454l-3.5,0.6l-0.2-1.3
			l1.4-0.3h2.1L340.7,454z M343.3,454l-0.6,2.5l-0.6-0.5v-1.8l-1.4-1.4v-0.4L343.3,454z"/>
		<path class="st1" d="M562.9,527.2h-0.8l-3.3-1.5l-2.9-2.3l-2.7-1.7l-2.1-2.1l0.8-1l0.2-0.9l1.4-1.7l1.5-1.5h0.7l0.8-0.3l1.3,1.9
			l-0.2,1.3l0.6,0.7h0.9l0.6-1.3h0.9l-0.1,0.9l0.3,1.5l-0.7,1.4l0.9,0.9l1,0.2l1.3,1.3v1.2l-0.3,0.4L562.9,527.2z"/>
		<path class="st0" d="M679.2,636.3l1.1,1.1l-1,1.8l-0.6,1.2l-1.8,0.6l-0.6,1.2l-1.1,0.4l-2.3-2.8l1.7-2.3l1.7-1.4l1.5-0.7
			L679.2,636.3z"/>
		<path class="st1" d="M590.7,522.2l-5,1.8l-1.8,1.1l-2.9,0.9l-2.8-0.9l0.1-1.2l-1.4-2.7l0.8-3.6l1.3-2.7l-0.8-4.6l-0.4-2.3v-1.8
			l5.5-0.1l1.4,0.2l1-0.5l1.5,0.3l-0.2,1l1.3,1.7v2.3l0.3,2.5l0.8,1.2l-0.7,2.9l0.3,1.6l0.9,2L590.7,522.2z"/>
		<path class="st1" d="M560.6,516.7h-0.9l-0.6,1.3h-0.9l-0.6-0.7l0.2-1.3l-1.3-1.9l-0.8,0.3H555l-0.9,0.2v-1.2l-0.5-0.8v-0.9
			l-0.7-1.3l-0.9-1.1h-2.5l-0.7,0.6h-0.9l-0.6,0.7l-0.4,0.9l-1.7,1.4l-1.4-1.9l-1.2-1.2l-0.8-0.4l-0.8-0.6l-0.3-1.4l-0.5-0.7
			l-0.9-0.5l1.4-1.6h1l0.8-0.6h0.7l0.5-0.4l-0.3-1.1l0.3-0.3v-1.1h1.5l2.3,0.8h0.7l0.2-0.3l1.7,0.3l0.5-0.2l0.2,1.2h0.5l0.8-0.4h0.5
			l0.9,0.8l1.4,0.3l0.9-0.7l1-0.4l0.8-0.5h0.6l0.7,0.7l0.4,0.9l1.3,1.3l-0.6,0.8l-0.1,1l0.7-0.3l0.4,0.4l-0.2,0.9l1,0.9l-0.6,0.2
			l-0.3,1.1l0.7,1.3l0.8,2.6l-1.2,0.4l-0.3,0.4l0.3,0.6l-0.2,1.4L560.6,516.7z"/>
		<path class="st1" d="M594.2,503.1v-2.3l-3.7-0.7v-1.6l-1.8-2.1l-0.4-1.5l0.3-1.6l2-0.1l1.2-1.2l4.3-0.3l2.8-0.5l0.3-2l1.7-2.3
			v-7.6l4.5-1.5l9.2-6.6l10.9-6.5l5,1.5l1.8,1.9l2.3-1.3l0.8,5.3l1.2,0.9v1.1l1.3,1.2l-0.7,1.5l-1.2,6.8l-0.2,4.3l-4,3.1l-1.4,4.3
			l1.3,1.2v2.1h2l-0.3,1.5l-0.9,0.2v1h-0.6l-2.1-3.5l-0.7-0.1l-2.5,1.8l-2.4-0.9l-1.7-0.2l-0.9,0.5h-1.9l-1.9,1.4h-1.6l-3.8-1.7
			l-1.5,0.8h-1.6l-1.2-1.2l-3.4-0.9l-3.4,0.4l-0.8,0.7l-0.4,1.9l-0.9,1.3l-0.2,2.9l-2.3-1.8h-1.1L594.2,503.1z"/>
		<path class="st0" d="M614.3,525.9L611,527l-1.2-0.2l-1.2,0.7h-2.5l-1.7-2l-1-2.3l-2.3-2.1h-5.2l0.2-5.1v-2l0.6-2l1-1l1.5-2
			l-0.3-0.9l0.6-1.3l-0.7-1.9l0.1-1.1l0.2-2.9l0.9-1.3l0.4-1.9l0.8-0.7l3.4-0.4l3.2,1.2l1.2,1.2h1.6l1.5-0.8l3.8,1.7h1.6l1.9-1.4
			h1.9l0.9-0.5l1.7,0.2l2.4,0.9l2.5-1.8l0.7,0.1l2.1,3.5h0.6l1.2,1.3l-0.3,0.6l-0.2,1.1l-2.7,2.5l-0.8,2.1l-0.5,1.7l-0.7,0.7
			l-0.6,2.3l-1.7,1.3l-0.5,1.6l-0.7,1.3l-0.3,1.3l-2.2,1.1l-1.8-1.3h-1.2l-1.9,1.8h-0.9l-1.5,3L614.3,525.9z"/>
		<path class="st0" d="M634.5,466.8l-2.3,1.3l-1.8-1.9l-5-1.5l-1.4-2.2l-2.5-1.6l-1.5,0.6l-1.1-1.9l-0.1-1.5l-1.9-2.6l1.3-1.5
			l-0.3-2.3l0.4-1.9l-0.2-1.6l0.6-2.9l-0.2-1.7l-1-3.2l1.5-0.9l0.3-1.6l-0.3-1.5l2.2-1.4l1-1.2l1.5-1.1l0.2-2.9l3.7,1.3l1.3-0.3
			l2.7,0.6l4.2,1.7l1.5,3.3l2.8,0.7l4.5,1.5l3.4,1.8l1.5-0.9l1.5-1.7l-0.7-2.8l1-1.8l2.3-1.8l2.2-0.5l4.3,0.8l1.1,1.7h1.2l1,0.6
			l3.2,0.4l0.8,1.2l-1.1,1.8l0.5,1.6l-0.8,2.3l0.9,2.9v32.1H663v1.4l-12.6-6.4l-12.6-6.5L634.5,466.8z"/>
		<path class="st0" d="M559.9,450.2v-4.2l5.1-2.7l3.2-0.6l2.6-1l1.2-1.8l3.7-1.5l0.1-2.7l1.8-0.3l1.4-1.4l4.2-0.6l0.6-1.5l-0.8-0.8
			l-1.1-4l-0.2-2.3l-1.2-2.5h-1.4l-3.3-0.9l-3,0.3l-1.9-1.7h-2.3l-1,2.3l-2.1,4l-2.3,1.6l-3.2,1.7l-2,2.5l-0.4,2l-1.2,3.2l0.8,4.6
			l-2.7,3l-1.6,1l-2.5,2.2l-3,0.4l-1.5,1.3l0,0L559.9,450.2z"/>
		<path class="st0" d="M662.5,420.3l1.7,1.3l2.5-0.2l2.3,0.3v0.7l1.7-0.5l-0.4,1.1l-4.6,0.3v-0.6l-3.9-0.8L662.5,420.3z
			 M671.7,396.7l-1,2.6l-0.8,0.5H668l-1.7-0.4l-3.9,1.1l2.3,2.3l-1.6,0.7h-1.8l-1.7-2.1l-0.6,0.9l0.7,2.5l1.6,1.9l-1.2,0.9l1.8,1.9
			l1.6,1.2v2.3l-1.5-1.3l-1.4,0.2l0.9,2l-1,0.2l-1.1-0.8l1.4,4.5h-0.6l-0.5-1.4h-0.6l-0.3,1.5l-0.5-0.3v-0.8l-0.6-1.2h-0.7l0.1,0.9
			l-0.3,0.3l-0.7-0.6l-0.4-1.1l0.6-0.6l-0.4-0.8l-0.5-0.4h-0.5l-0.6-1.1l0.6-0.6l0.4-0.6h0.6l0.3-0.5l0.7-0.2l0.8,0.5l0.6,0.2
			l0.4-0.7h-1.1l-0.6-0.2l-1.4,0.3h-1.4l-1.2-1.8l-0.2-0.3l0.2-0.7l-1.6-1.3l-0.2-1.2l1.5-2l0.2-1.3l1-0.6V400l2.1-0.4l1.2-0.9h1.7
			l0.5-0.7l0.6-0.1l2.3,0.1l2.5-1.2l2.3,1.5l2.9-0.4v-2.1L671.7,396.7z"/>
		<path class="st1" d="M301.8,497.3l-1.6-0.6h-2l-1.5-0.6l-1.7-1.3v-0.9l0.4-0.8l-0.4-0.6l1.5-2.7h4.1v-1.1l-0.5-0.2l-0.3-0.7
			l-1.2-0.8l-1.2-1.1h1.4V484h5.9v2.6l-0.3,3.7h0.9l1,0.6l0.3-0.5l0.9,0.4l-1.4,1.2l-1.5,0.9l-0.2,0.6l0.3,0.6L304,495l-0.7,0.2
			l0.2,0.4l-0.6,0.4l-1.1,0.8L301.8,497.3z"/>
		<path class="st0" d="M704.4,397.6l4.6,1.6l3.7-0.6l2.7,0.4l3.7-2.3l3.4-0.2l3,2.1l0.6,1.5l-0.3,2l2.3,1l1.2,1.2l-2.2,1.2l1,4.6
			l-0.6,1.2l1.7,3.2l-1.5,0.7l-1.1-1l-3.7-0.5l-1.4,0.6l-3.6,0.6h-1.7l-3.6,1.5h-2.6l-1.7-0.7l-3.5,1.1l-1-0.8l-0.2,2.3l-0.9,0.9
			l-0.9,0.9l-1.2-1.8l1.2-1.5l-1.9,0.3l-2.7-0.9l-2.2,2.3l-4.8,0.4l-2.6-2.1l-3.4-0.2l-0.7,1.6l-2.3,0.5l-3.1-2.1h-3.5l-1.9-3.9
			l-2.3-2.3l1.5-3.1l-2-1.9l3.5-3.9l4.9-0.2l1.3-3.2l6,0.6l3.8-2.7l3.7-1.2h5.2L704.4,397.6z M673.6,400.3l-2.7,2.3l-1-1.9v-0.9
			l0.8-0.5l1-2.6l-1.5-1.1l3.2-1.3l2.7,0.6l0.4,1.6l2.8,1.4l-0.6,1l-3.8,0.2L673.6,400.3z"/>
		<path class="st0" d="M391.8,506.9l1.8-0.4h0.7l-0.1,2.3l-2.7,0.3l-0.6-0.3l0.9-0.9L391.8,506.9z"/>
		<path class="st0" d="M688.1,347.7l1.2,0.2l0.8-1.2l1,0.3l3.3-0.5l2,2.9l-0.8,1l0.3,1.6l2.5,0.2l1.1,2.2v1l4,1.7l2.4-0.8l2,2.3h1.8
			l4.6,1.6v1.4l-1.3,2.5l0.7,2.6l-0.5,1.6l-3.1,0.3l-1.6,1.3v2.1l-2.5,0.4L704,374l-3,0.2l-2.7,1.7l-1.5,1.2l1.7,1.7l1.5,1.1
			l3.2-0.3l-0.6,1.6l-3.5,0.8l-4.3,2.6l-1.8-0.9l0.7-2.1l-3.5-1.3l0.6-0.9l3.6-1.8l-0.5-0.9l-0.5,0.5l-0.5-0.3l-4.9-1.2l-0.2-1.7
			l-2.9,0.6l-1.2,2.5l-2.4,3.3l-1.5-0.8l-1.5,0.7l-1.4-0.8l0.8-0.5l0.6-1.5l0.9-1.5l-0.2-0.8l0.7-0.4l0.3,0.6l1.9,0.1l0.8-0.3
			l-0.6-0.5l0.2-0.7l-1.1-1.2l-0.5-1.9l-1.2-0.8l0.2-1.6l-1.4-1.3l-1.3-0.2l-2.3-1.5l-2.1,0.5l-0.8,0.7h-1.3l-0.8,1.1l-2.3,0.5
			l-1.1,0.7l-1.5-1.1h-2l-2-0.5l-1.4,1l-0.2-1.3l-1.8-1.3l0.6-1.9l0.9-1.2l0.7,0.3l-0.8-2.2l2.9-4.1l1.6-0.6l0.3-1.4l-1.6-4.4
			l1.5-0.2l1.7-1.4h2.4l3.2,0.4l3.5,1.2h2.5l1.2,0.7l1.2-0.9l0.8,1.2l2.9-0.3l1.2,0.5l0.2-2.5l1-1.1L688.1,347.7z"/>
		<path class="st1" d="M688.4,544.2h-3.5l-1.1,0.4l-1.9,1l-0.8-0.3v-2.3l0.7-1.2l0.2-2.5l0.7-1.5l1.2-1.7l1.2-0.8l1-1.1l-1.3-0.4
			l0.2-3.7l1.3-0.9l2,0.7l2.6-0.7h2.3l2-1.5l1.5,2.3l0.4,1.6l1.4,3.6l-1.2,2.3l-1.6,2.1l-0.9,1.3v3.3L688.4,544.2z"/>
		<path class="st0" d="M661.8,338.2h3.1l3.4-2l0.7-3.1l2.6-1.8l-0.3-2.5l1.9-0.9l3.4-2.2l3.3,1.4l0.5,1.4l1.7-0.7l3.1,1.3l0.3,2.6
			l-0.7,1.5l2,3.6l1.3,1l-0.2,1l2.1,0.9l0.9,1.4l-1.2,1.2l-2.6-0.1l-0.6,0.5l0.7,1.7l0.8,3.3l-2.7,0.3l-1,1.1l-0.2,2.6l-1.2-0.5
			l-2.9,0.3l-0.8-1.2l-1.2,0.9l-1.2-0.7h-2.5l-3.5-1.2l-3.2-0.4h-2.4l-1.7,1.4l-1.5,0.2v-2.3l-1-2.3l1.9-1.1v-2.1l-0.9-2
			L661.8,338.2z"/>
		<path class="st1" d="M304.8,483.9v-0.5l0.4-0.2l0.6,0.4l1.1-2h0.6v0.5h0.6v0.9l-0.5,1.4l0.3,0.5l-0.3,1.2l0.2,0.3l-0.4,1.7
			l-0.6,0.9h-0.6l-0.6,1.1h-0.9l0.3-3.7L304.8,483.9z"/>
		<path class="st0" d="M654.1,326.5v-4.3l1.6-3.7l3-2l2.5,4.4h2.5l0.6-4.6l2.7-1.1l1.4,0.7l2.7,2.3h2.6l1.5,1.3l0.3,2.8l1,3.4
			l-3.4,2.2l-1.9,0.9l-2.9-2.9l-1.7-0.4l-0.4-1.2l-3.1,0.6l-5.3-0.4L654.1,326.5z"/>
		<path class="st0" d="M671.8,366.9l0.8-0.7l2.1-0.5l2.3,1.5l1.3,0.2l1.4,1.3l-0.2,1.6l1.2,0.8l0.5,1.9l1.1,1.2l-0.2,0.7l0.6,0.5
			l-0.8,0.3l-1.9-0.1l-0.3-0.6l-0.7,0.4l0.2,0.8l-0.9,1.5l-0.6,1.5l-0.8,0.5l-0.6-2.1l0.3-1.9v-2l-1.8-2.8l-1-2l-1-1.4L671.8,366.9z
			"/>
		<path class="st0" d="M664.4,316.3l0.4-3.5l-1.2,0.8l-2-2.1l-0.3-3.5l4-1.7l4-0.9l3.4,1l3.3-0.2l0.5,1.1l-2.3,3.6l0.9,5.6l-1.4,1.9
			h-2.6l-2.7-2.3l-1.4-0.7L664.4,316.3z"/>
		<path class="st0" d="M707.5,493.3l1.9,1.5l1.8-0.8l0.8,0.7h2.2l2.8,1.3l0.8,1.1l1.4,1l1.3,1.9l1.1,1.1l-1.1,1.4l-1.1,1.5l0.2,0.9
			v1h1.8l0.8-0.2l0.7,0.6l-0.7,1.1l1.2,1.8l1.2,1.5l1.2,1.1l10.4,3.8h2.7l-9,9.5l-4.1,0.1l-2.8,2.3h-2l-0.9,1h-2.2l-1.3-1.1
			l-2.9,1.3l-0.9,1.3l-2.1-0.3l-0.7-0.4h-0.7h-1l-3.9-2.7h-2.3l-1.1-1V524l-1.7-0.5l-1.9-3.4l-1.5-0.7l-0.6-1.3l-1.6-1.5l-1.9-0.2
			l1.1-1.8h1.7l0.5-1v-2.8l0.9-3.3l1.5-0.9l0.3-1.3l1.4-2.4l1.9-1.6l1.3-3.2l0.5-2.8l3.7,0.7L707.5,493.3z"/>
		<path class="st0" d="M678,235.4l-0.5,6.1l4.9,5.7l-2.9,6.2l3.7,9l-2.1,6.5l2.9,5.5l-1.3,4.6l4.6,4.8l-1.2,3.5l-2.9,3.9l-6.8,8.4
			l-5.7,0.5l-5.6,2.3l-5.1,1.3l-1.8-3.5l-3.1-2.1l0.7-6.5l-1.5-6.1l1.5-4l2.9-4.5l7.2-7.9l2.1-1.6l-0.3-3.2l-4.4-3.6l-1.1-3v-12.6
			l-4.9-5.8l-4.2-4.3l1.9-2.3l3.5,4.6l4.1-0.4l3.4,2.1l3-3.9l1.6-6.6l4.8-3.1l4.1,3.7L678,235.4z"/>
		<path class="st0" d="M1158.6,592.1l-0.4,1.6l-0.3,0.2l-2,0.8l-2,0.7l-0.4-1.2l1.6-0.7l1-0.2l1.8-1L1158.6,592.1z M1152,597
			l-1.4-0.4l-1.2,1.1l0.3,1.5l1.8,0.4l2-0.5l0.5-1.7l-1.1-0.9L1152,597z"/>
		<path class="st0" d="M657.7,262.9l-3.1,5.3l0.5,4.6l-5.1,5.8l-6.1,5.9l-2.3,9.5l2.3,4.6l3,3.6l-2.9,7l-3.3,1.4l-1.2,10l-1.8,5.4
			l-3.9-0.6l-1.8,4.5l-3.7,0.3l-1-5.3l-2.7-6.6l-2.3-8.5l1.4-3.6l2.6-4.3l1.1-7.6l-2-3.4l-0.2-9.1l2.1-6.7l3.1,0.1l1.1-2.9l-1.2-2.5
			l4.9-10.8l3.2-8.9l2.1-5.9h3l0.9-4.8l6,1.4l0.5-5.7l2-0.4l4.2,4.3l4.9,5.8v12.6l1.1,3L657.7,262.9z"/>
		<path class="st0" d="M631.1,374.9l2.6,0.3l1.6-1h2.8l0.6-0.8h0.5l0.6,1.5l-2.5,1.2l-0.3,1.8l-1.1,0.5v1.3h-1.2l-1.1-0.7l-0.6,0.8
			l-2.3-0.2l0.7-0.4l-0.8-1.9L631.1,374.9z"/>
		<path class="st0" d="M439.1,44.1l10.7-15.4l11.1,1.2l4-10.1l11.2-2.8l25.4,3.6l19.8,21l-5.9,9.4L503.4,52l-17.1,2.3l1.6,4.1
			l11.2-2.5l9.6,7.8l6.2-6.9l2.6,8.1L514,77.2l8.1-7.8l15.4-8.5l9.5,4.3l1.8,9.2l-12.9,14.3l-1.8,4.4l-10.1,3.2l7.3,0.9l-3.6,13.1
			l-2.6,10.8v17.3l3.8,9.4l-5,0.6l-5.2,4.4l5.9,7.2l0.7,10.9l-3.4,1.2l4.1,10.3l-6.9,0.9l3.7,4.6l-1,4l-4.5,1.7h-4.4l4,7.3v4.6
			l-6.3-4.3l-1.6,2.8l4.3,2.6l4.2,6.2l1.2,7.9l-5.7,1.8l-2.4-3.7l-3.9-5.7l1.1,6.6l-3.7,5l8.4,0.4l4.4,0.5l-8.5,8l-8.6,6.9l-9.2,3
			h-3.5l-3.3,3.3l-4.4,8.6l-6.9,5.5l-2.3,0.3l-4.2,1.9l-4.6,1.8l-2.7,4.6v5.1l-1.6,4.6l-5.2,5.6l1.3,5.3l-1.4,5.5l-1.6,6.3l-4.5,0.4
			l-4.6-5.2h-6.3l-3-3.3l-2.1-6.6l-5.4-8.8l-1.6-4.6l-0.4-6.7l-4.4-7.1l1.1-5.8l-2.1-2.9l3.1-9.8l4.8-3.2l1.2-3.7l0.7-7.1l-3.6,3.2
			l-1.7,1.3l-2.8,1.3l-3.9-3l-0.2-6.3l1.2-5.1l2.9-0.1l6.5,2.5l-5.5-6.2l-2.8-3.4l-3.2,1.4l-2.7-2.5l3.5-9.6l-1.9-4l-2.5-7.6
			l-3.8-12.3l-4-4.6v-5.3l-8.5-7.6l-6.7-1l-8.5,0.5l-7.7,1l-3.7-4.2l-5.5-8.7l8.3-4.5l6.4-0.8l-13.6-3.8l-7.1-6.1l0.4-6l12-7.8
			l11.5-8.1l1.2-6.4l-8.5-6.5l2.8-7.5l11-13.8l4.6-2.3l-1.3-9.7l7.5-5.9l9.7-3.6l9.7-0.2l3.4,7.1l8.4-12.8l7.7,8.8l4.5,1.8l6.6,7.2
			l-7.5-12.2L439.1,44.1z"/>
		<path class="st0" d="M534,499.1l0.4-1.4h3.4l0.7-0.8h1l1.2,0.8h1l1.1-0.6l0.6,0.9l-1.4,0.7h-1.4l-1.4-0.7l-1.2,0.7h-0.6l-0.8,0.5
			L534,499.1z"/>
		<path class="st0" d="M275,125.8l-0.3-6.7l4.1,0.6l1.8,1.1l3.8,5.6l-0.9,5.6l-4.6,3.1l-2.7-3.5L275,125.8z M289.9,140.1l0.4-1.7
			l-2.3-2.8l-6.4-0.2l0.9,4.2l5.9,0.9L289.9,140.1z M331,193.2l3.5,5.8l0.9,0.6l3.5-1.4l3.4,0.2l3.4,0.3l-0.4-3l-5.5-6.1l-7.3-1.2
			l-1.5,0.8L331,193.2z M257,122.3l-3.1,4.7l7.1,0.6l5.2,5l5.3,1.7l-1.2-6.4l-2.3-7.6l-8.6-6l-6.2-2.3l0.2,6.4L257,122.3z
			 M286.3,110.8l5.8-0.1l-2.5,4.6v6l3.4,6.4l6.6,2l5.6-1.1l5.9-12.1l4.3-5.1l-3.8-5.6l-2.5-12l-5.2-3.6l-5.3-4.2l-4-10.8l-7.4,1.1
			l1.4,4.6l-3.3,1.4l-2.3,6l-2.3,8.4l2,8.2L286.3,110.8z M214.2,171.1l4.4,2.3l14.3-1.5l-6.6,5.4l0.4,3.9l4.8-0.5l8-5.2l10.8-1.8
			l1.9-5.9l-0.6-6.3l-3.3-0.6l-2.8,2.2l-1.2-4.6l-1.1-6.4l-3.3-1.6l-2.9,4.8l4.6,12.5l-5.6-1l-5.6-7.7l-8.9-4.6l-3,3.8L214.2,171.1z
			 M239.7,123.6l-4.1-3.3l-1.7-0.7l-3.3,4.8v2.3h5.3L239.7,123.6z M238.1,137.5l1.1-4.6l-4.5-2.3l-4.6,1.6l-2.6,4.8l4.6,4.8
			L238.1,137.5z M271,175.1l5.1-1.3l1.5-9.2v-6.7l-2.3-6.3l-0.3,1.8l-4.5-0.8l-4.8,4.6l-3.5-0.5l0.2,10.2l5.2-1v7.3L271,175.1z
			 M267.3,226.7l-5.7-4.4l-5.3-4.8l-1-6.9l-2-10.1l-3.6-4.3l-3.2-1.8l-2.8,1.6l2.3,10.8l-1.6,4.2l-2.6-10.2l-2.9-3.5l-3.6,5.4
			l-4.4-5.4l-7.1,3.1l1.5-5.1l-3.3-2.1l-8.3,6.6l-2.3,4.2l-2.7,7.7l5.5,2.6l4.9-0.1l-7.4,3.9l1.7,3.5l4.6,0.2l6.8-0.8l6.1,2.3
			l-4.1,1.6l-4.6-0.6l-4.9,1.6l-2.1,1l3.9,7.2l2.8-1l4.3,2.4l1.7,4.1l5.7-0.8l8-1.3l6-3l3.7-0.6l5.4,2.3l5.7,1.4l1.1-3.2l-2-3.2
			l5.2-0.8L267.3,226.7z M276.1,225.6l-2.3,4l-2.8,2.8l4.3,4l2.6-1l4.3,2.7l2-3.1l-1.9-3.5l-0.9-1.7l-1.9-1.7L276.1,225.6z
			 M256.1,192.3l-2.3-2.4l-4.2,0.5l-1.1,1.5l4.9,7.6L256.1,192.3z M288.5,207.2l3.4-7.8l3.8-2.1l4.7-9.9l-6.1-2.8l-6.6-0.4l-3.1,3.1
			l-1.6,4.8v5.4l2,9.2L288.5,207.2z M307.9,181.2l6.5-0.2l9.1-1.8l4.1,1.5l4.6-2.6l2-3.2l-0.7-5.1l-3.4-4.8l-5.1-0.9l-6.5,1.1
			l-5.1,2.8l-4.6-1.1l-4.3-0.6l-2-3l-3.6-3l0.7-5l-2.7-4.5h-6.3l-3.5-4.6l-6.4-0.8l-1.2,5.8l3.6,4.3l6.6,1.6l3.2,5.7l0.4,6.3
			l1.1,6.8l8.4,3.9L307.9,181.2z M207.3,160.4l5.9-5.7l3-0.6l2.4-4.8l0.4-11.1l-4.4,2.2l-4.9-0.2l-6.5,9.2l-5.4,10.2l4.4,2.9
			L207.3,160.4z M288.9,178.7l1.7-4.6l-1.2-3.9l-2.8-4.4l-4.6,3.4l-1.7,5.6l3.9,3.2L288.9,178.7z M279.5,191.6l-0.8-3.3L273,190
			l-3.8-2.3l-3.8,5.2l3.5,7.1l-6.5-1.3v3.4l7.9,8l2.3,3.8l3,0.8l5-4l0.6-9.2l-4.8-4.6L279.5,191.6z M195.8,365.5l-1.3-2.7l-3.2-2
			l-1.6-2.3l-1.1-1.7l-3-0.5l-1.9-0.8l-3.3-1.1l-0.3,1.2l1.3,2.8l3.3,0.9l0.6,1.4l2.8,1.7l0.9,1.7l5.2,2.2L195.8,365.5z
			 M333.4,277.9l-2.3-2.3l-2.3,0.6l-0.3-3.5l-3.6-2.3l-3.5-2.6l-1.8-2L318,267l-0.6-3.3l-2.3-0.6l-1.1,6.9l-0.4,5.8l-2.8,3.6
			l4.3-0.7l1.1,4.1l4.6-3.6l3.1-3.8l1.8,3.2l4.9,1.7L333.4,277.9z M197.2,218.3l8.4-4.6v-4.4l3.9-7.2l7.8-7.6l4-2.8l-3.4-4.8
			l-3.1-3.4l-8.1-0.6l-4.6-2.4l-10.7,1.8l3.1,7l-2.7,7.3l-2.3,7.8l-1.4,4.4l7.3,5.3L197.2,218.3z M349,249.2l0.4-1.1v-3.6l-2.5-2.3
			l-2.9,1.2l-1.3,4.6l0.8,4l3.6-0.4L349,249.2z M375.9,257.7l5,7.5l3.9,3.2l5.6-8.9l1-5.6l-5-0.5l-4.6-7.6l-5-1.8l-7.4-5.6l5.8-4.1
			l-3-8.5l-2.8-3.8l-7.7-3.8l-3.3-6.3l-5.9,2.3l-0.4-4.4l-4.4-5l-6.9-5.3l-3,4.2l-6.2,3l0.5-6.9l-5.4-11.4l-8,4.6l-2.9,8.7l-2.5-6.6
			l2.3-7.2l-8.2,3l-3.3,4.6l-2.4,9.4l1,10.2h4.6l-3.3,4.4l2.6,3.3l5.1,1.4l6.7,2.7l11.5,2.1l5.7-1.2l1.7-2.7l2.5,3.2l2.8,0.5
			l3.4,5.6l-2,2.3l6.4,3l4.8,4.2l1.2,2.9l0.9,3.7l-4.1,7.8l-1.1,3.9l1.1,2.7l-6.5,1l-6,0.1l-2.1,5.5l2.7,2.5l9.2-1.2v-2.1l4.6,3.6
			l4.6,3.7l-1.1,2l3.9,3.4l6.9,4l8.6,2.7l-0.5-2.3l-3.3-4.2l-4.7-6.2l8,5.7l4,1.9l1.1-5l-2.1-7.1l-1.3-2l-4.3-3.4l-3.3-4.4l0.4-4.5
			L375.9,257.7z M301.5,75.1l2.7,8.2l5.6,6.6l11.1-1.2l7.1,2.3l-5,6.9l-2.5-2l-8.7-0.8l1.3,9.4l4.5,6.9l-0.9,5.9l-5.6,3.9l-2.6,6.2
			l5.1,3l4.3,9.7l-8.5-6.4l-1.9,1.1l1.6,10.6l-5.9,3.2l0.4,6.6l6,0.7l4.6,1.6l9.2-2.1l8.3,3.7l8.6-8.4v-3.4l-5.4,0.6l-0.4-3.2
			l4.4-4.3l1.5-5.8l4.8-4.4l3-5.4l-2.6-8l2.3-3l-4.4-2.2l9.6-1.8l2-3.6l6.5-2.9l5.4-15.2l5.2-5.6l7.6-12.5H373l2.9-4.9l7.7-4.6
			l7.7-10.1l0.1-6.5l-5.8-6.9l-6.9-3.3l-8.5-2.1l-6.9-1.7l-6.9-1.7l-9.2,4.6l-1.7-2.9l-9.4,1.3l-5.8,2.9l-4.2,4.1l-2.3,13.3
			l-3.5-6.8l-3.9-1.3l-4.6,9l-6.4,3.7l-3.7,0.7l-4.6,4.3l0.7,7.5L301.5,75.1z M385.6,374.7l-1.1-2.3l-1.2,1.4l0.8,1.5l4,1.9l1.2-0.3
			l1.6-1.9l-2.9,0.1L385.6,374.7z M321.2,286.7l0.7,1.8l2.3,0.2l3.7-3.8v-1.3h-4.4L321.2,286.7z M391.4,361.8l-3.3-2l-4.2-1.2
			l-1.1,0.4l3,2.3l4.1,1.5h1.5L391.4,361.8z M419.6,367.2l-0.4-2.5l-2.3,0.8l1-3.5l-3.2-1.5l-1.5,1.2l-2.8-1.3l1.1-1.7l-2.1-1.1
			l-2.1,1.7l2.1-4.3l1.7-3.2l0.6-1.4l-1.5-0.2l-2.7,1.8l-2,2.9l-3.3,7.8l-2.7,2.9l1.4,1.3l-2,1.7l0.5,1.4l6.2,0.1l3.4-0.3l3,1.1
			l-2.3,2.2l1.9,0.2l3.7-4l0.9,0.6l-0.7,3.8l2.1,0.9l1.4-0.2l1.3-4.1L419.6,367.2z M395.6,372.6l-3.2,5.1l-5.2,0.6l-4.1-2.3l-1-3.5
			l-1-5.1l3-3.2l-2.8-2.3l-4.7,0.5l-6.6,4l-5.1,6.2l-2.7,0.8l3.6-4.3l4.6-6.3l4-2.1l2.7-3.5l3.3-0.3h4.8l6.8,1l5.4-0.8l4-4.1
			l5.2-1.8l2.3-1.8l2.3-1.9l-0.2-5.9l-1.3-2l-2.5-0.7l-1.2-4.6l-2-1.8l-5.1-1.4l-2.8-3.2l-4.4-3.1l1.3-3.6l-3.5-7.1l-4.1-7.8
			l-2.4-5.6l-2.1,3l-3,6.9l-4.6,3.4l-2.3-3.6l-2.9-1l-1.1-7.9v-5.4l-5.7-0.5l-1-2.6l-3.9-3.9l-3-2.3l-2.6,1.8l-3.3-0.6l-5.4-1.9
			l-2.3,1.6l1.1,10.4l1.4,5.8l-3.7,6.5l3.9,4.6l2.1,5l0.3,3.9l-1.8,4l-3.6,3.9l-5.1,2.6l2.3,2.9l1.7,8.4l-1.7,5.3l-2.4,1.7l-4.6-4.8
			l-2.3-5.8l-1-5.4l0.5-4.7l-3.4-0.5l-5.2-0.3l-3.4-2.3l-4-1.5l-2.3-2.7l-3.2-2.3l-5.9-2.7l-4.4,1.2l-1.5-4.5l-1.4-5.7l-4.6-1
			l0.2-7.2l1.2-5.1l3.4-7.5l3.9-5.5l3.7-0.9l0.2-4.6l2.5-3l4.6-0.5l3.7-5l0.9-3.3l3-6.5l0.9-4l3.3,2.3l4.4-1.2l6.2-5.6l0.4-4
			l-2.3-4.6l2.3-4.6l-0.2-4.4l-4.2-4.5l-4.6-1.3l-4.6-0.7l-0.2,9.9l-2.3,7.4l-3.3,6l-3.1-5.6l0.9-6.3l-3.8-5.7l-4.2,6.9v-8.7
			l-5.9-1.8l2.8-4.6l-4.3-10.8l-3.2-4.4l-4.2-1.6l-3.6,7.2l-0.3,10.6l3.7,3.7l3.4,5.6l-1.4,8.7l-2.6-0.2l-2,6.6v-7.8l-4.9-2.9
			l-2.8,1.5l0.4,5.3l-4.6-0.2l-4.9,1.3l-5.6-3.8l-3.5,0.7l-3.2-4.6l-2.6-2.1l-2.6,0.8l-3.9,0.4l-2.1,3l3.2,3.6l-3.4,4.2l-3.4-5
			l-2.7,1.5l-8.6,1l-5.7-1.7l4.5-4.2l-4.3-4.4l-3.1,0.6l-4.4-1.5l-7.4-3.3l-5-3.8l-3.9-0.5l-1.2,2.7l-3.9,1.5l-0.4-6.9l-4.1,6.1
			l-5.4-8.3l-2.3-1l-0.7,4.4l-2.3,2.1l-2.2-3.8l-5.2,2.3l-4.7,4.1l-4.6-1.1l-3.9,2.8l-2.8,3.7l-3.3-0.8l-5-4.3l-5.9-2.3v71.3
			l3.1,0.2l3.1,1.8l2.3,2.8l2.8,4.1l3.1-3.4l3.2-2l1.7,3.2l2.1,2.5l2.9,2.7l2,4.3l3,6.7l5.4,3.6v3.5l-1.8,2.7v2.8l3.9,3.8l0.6,4.2
			l4.1,2.3l-0.5,3.2l1.8,4.5l5.7,2.1l2.3,2.1l6.2,4.7h88.1v-1.8h1.1l0.6,2.7l1,0.8l2.3,0.3l3.2,0.8l3.1,1.5l2.6-0.6l3.9,1.2l1.3-1.9
			l1.8-0.7l0.7-1.2l0.7-0.6l3,1h2.2l0.8,0.6l1.1,2.7l3.6,0.7l-0.6,1.3l1.2,1.4l-0.6,1.8l1.3,0.6l-0.7,1.5l0.9,0.1l0.6-0.7l0.6,1
			l2.3,0.6h2.3l2.6,0.5l2.8,0.9l1,1.4l2.1,3.4l-1,1.5l-2.6-0.6l-1.6-2.8l0.4,2.8l-1.5,2.4l0.2,2.1l-0.3,1.2l-2.1,1.4l-1.5,2.3
			l-0.7,1.5l1.7,0.3l2.3-1.4l1.4-1.2l0.9-0.2l1.7,0.4l0.9-0.7l1.5-0.6l2.8-0.5l0,0l-0.3-1.3h-0.1l-1,0.2l-1.3-0.4l0.9-1.5l1-0.5
			l2.3-0.6l2.7-0.6l1.4,0.8l0.9-1l1-0.6l0.7,0.3l0,0l3.3-3.1l1.4-0.8h10.7l0.3-1.1l1-0.2l1.3-0.7l1.1-2.1l1-3.6l2.3-3.5l1.1,1.2
			l2.1-0.8l1.4,1.3v6.3l2.1,2.5l3.5-0.6l5.1-0.1l-5.5,3.7l0.1,3.7l2.3,0.3l3.5-3.2l3.1-1.8l6.9-2.7l3.9-3l-2.1-1.7L395.6,372.6z
			 M334.9,292.2l1.2-3.5l-0.8-1.4l-1.3-0.1l-1.2,2l-0.1,0.5l0.8,2L334.9,292.2z M173.6,333.4L173.6,333.4l1.8-2.7L173.6,333.4z
			 M169.7,337.1l-3,0.4l-1.5-0.7l-0.2,1.7l0.6,2.3l1.6,1.7l1.2,2.3l1.9,2.3h1.3l-2.8-4.2L169.7,337.1z"/>
		<path class="st0" d="M685.1,529.9l-0.2,3.7l1.3,0.4l-1,1.1L684,536l-1.2,1.7l-0.7,1.5l-0.2,2.5l-0.7,1.2v2.3l-0.9,0.9v1.9
			l-0.4,0.2l-0.3,1.7l0.8,1.4l0.2,3.8l0.6,2.9l-0.3,1.7l0.6,1.8l1.8,1.8l1.7,4l-1.2-0.3l-4.3,0.6l-0.9,0.4l-0.9,2l0.7,1.4l-0.6,3.8
			l-0.4,3.2l0.9,0.6l2.3,1.2l0.9-0.6l0.3,3.5h-2.4l-1.3-1.8l-1.2-1.4l-2.4-0.5l-0.7-1.7l-1.9,1l-2.5-0.5l-1.1-1.5l-2-0.3h-1.5
			l-0.2-1h-1.1l-1.5-0.2l-2,0.5h-1.4l-0.8,0.3l0.2-3.8l-1.1-1.2l-0.2-2l0.5-1.9l-0.6-1.2v-2h-3.9l0.3-1.1h-1.6l-0.2,0.6l-2,0.1
			l-0.8,1.8l-0.5,0.8l-1.8-0.5l-1,0.5l-2.1,0.3l-1.2-1.7l-0.7-1l-0.9-1.9l-0.8-2.3h-9.7l-1.1,0.4h-0.9l-1.3,0.4l-0.4-1l0.8-0.3v-1.4
			l0.5-0.8l1.2-0.6l0.8,0.3l1.1-1.2h1.7l0.2,0.9l1.2,0.6l1.9-2l1.8-1.5l0.8-1v-2.6l1.4-3.1l1.5-1.6l2.1-1.5l0.4-1v-1.2l0.5-1.1
			l-0.2-1.8l0.4-2.8l0.6-2l0.9-1.7l0.2-1.9l0.3-2.3l1.2-1.6l1.7-1l2.6,1.1l2,1.2l2.3,0.3l2.3,0.6l0.9-1.9l0.4-0.3l1.4,0.3l3.5-1.6
			l1.2,0.7h1l0.5-0.8l1.2-0.3l2.3,0.3h2l1.1-0.3l1.9,2.6l1.4,0.4l0.9-0.5l1.5,0.2l1.8-0.7l0.8,1.3L685.1,529.9z"/>
		<path class="st0" d="M731.4,419.3l2.1,1.2l0.3,2.3l-1.6,1.3l-0.7,3l2.3,3.6l3.9,2.1l1.6,2.8l-0.5,2.7h1v2l1.8,1.9l-1.9-0.2
			l-2.1-0.3l-2.3,3.5l-5.9-0.3l-8.9-7.3l-4.6-2.6l-3.8-1l-1.3-4.6l6.9-4l1.2-4.6l-0.3-2.8l1.7-1l1.6-2.5l1.4-0.6l3.7,0.5l1.1,1
			l1.5-0.7L731.4,419.3z"/>
		<path class="st0" d="M937.2,481l-2.7,1.6l-2.6-1v-2.9l1.6-1.5l3.5-0.9h1.8l0.7,1.3L938,479L937.2,481z M992.1,359.5l5.5,1.6
			l3.8,3.4l1.3,4.5h4.8l2.7-1.9l5.2-1.4l-1.7,4.2l-1.2,1.7l-1.1,5.1l-2.1,4.4l-3.9-0.8l-2.7,1.6l0.8,3.8l-0.5,5.1h-1.6v2.2l-2.1-2.5
			l-1.2,2.3l-4.9,1.8l0.5,2.3l-2.7-0.2l-1.5-1.3l-2.2,3l-3.5,2.3l-2.6,2.7l-4.4,1.2l-2.3,1.9l-3.4,1.1l1.7-1.9l-0.7-1.6l2.5-2.8
			l-1.7-2.2l-2.8,1.5l-3.6,2.9l-2,2.7l-3.1,0.2l-1.6,1.9l1.7,2.7l2.6,0.6v1.8l2.5,1.2l3.6-2.8l2.8,1.5h2.1l0.5,2.1l-4.5,1.1
			l-1.5,2.1l-3.1,2l-1.6,2.7l3.4,2.1l1.2,3.7l1.9,3.4l2.1,2.9v2.7l-2,1l0.8,2l1.9,1.1l-0.5,3l-0.8,2.8l-1.8,0.3l-2.3,3.9l-2.6,4.6
			l-2.9,4.2l-4.4,3.2l-4.4,2.9l-3.6,0.4l-1.9,1.5l-1.1-1.1l-1.8,1.7l-4.4,1.7l-3.4,0.5l-1.1,3.6l-1.8,0.2l-0.8-2.4l0.7-1.3l-4.2-1.1
			l-1.5,0.6l-3.2-0.9l-1.5-1.4l0.5-2l-2.9-0.6l-1.5-1.3l-2.7,1.8l-3.1,0.4h-2.6l-1.7,0.8l-1.6,0.5l0.5,3.9h-1.7l-0.3-0.8v-1.4
			l-2.3,1l-1.4-0.6l-2.3-1.3l0.9-2.8l-2-0.7l-0.8-3.2l-3.3,0.6l0.4-4.1l3-2.9l0.1-2.9v-2.7l-1.4-0.9l-1.1-2.1l-1.8,0.3l-3.4-0.5
			l1.1-1.5l-1.5-2.3l-2.3,1.5l-2.7-0.9l-3.6,2.3l-3.1,2.8l-2.6,0.4l-1.4-1h-1.7l-2.3-0.8l-1.7,0.9l-2.1,2.7l-0.3-2.8l-1.9,0.7
			l-3.7-0.3l-3.6-0.8l-2.6-1.6l-2.5-0.7l-1.1-1.7l-1.8-0.5l-3.2-2.3l-2.5-1.1l-1.3,0.9l-4.4-2.6l-3.1-2.3l-0.9-4.1l2.3,0.5v-1.9
			l-1.3-1.9l0.3-3.1l-3.4-4.6l-5.2-1.6l-0.9-3l-2.3-1.8l-0.6-1.1l-0.5-2.3v-1.6l-1.9-0.9l-1,0.4l-0.8-3.8l0.9-0.9l-0.4-1l3-2
			l2.3-0.8l3.4,0.6l1.2-2.7l4.1-0.5l1.1-1.7l5-2.3l0.4-1l-0.3-2.4l2.2-1.1l-2.8-7.6l6.3-1.8l1.6-1l2.3-8.2l6.3,1.5l1.8-2.1l0.1-4.7
			l2.6-0.4l2.3-3.2l1.2-0.4l0.8,3.4l2.9,2.6l4.6,1.8l2.2,3.8l-1.2,5.4l1.1,2l3.8,0.8l4.3,0.6l3.8,2.8l2,0.5l1.5,4l1.9,2.6h3.5l6.6,1
			l4.2-0.6l3.1,0.6l4.6,2.6h3.8l1.4,1.3l3.7-2.3l5.1-1.5l4.8-0.2l3.7-1.5l2.3-2.3l2.3-1.5l-0.5-1.5l-1-1.7l1.7-2.9l1.8,0.4l3.3,0.9
			l3.2-2.3l4.8-1.8l2.3-3l2.3-1.3l4.6-0.6l2.5,0.5l0.3-1.6l-2.9-3.3l-2.5-1.5l-2.4,1.7l-3.1-0.7l-1.8,0.6l-0.8-1.9l2.3-4.8l1.5-3.7
			l3.8,1.8l4.5-3.1v-2.2l2.9-5.4l1.8-1.6v-2.8l-1.7-1.2l2.6-2.6l3.9-0.9l4.2-0.1l4.8,1.6l2.8,1.9l2,5.2l1.2,2.3l1.1,3.1L992.1,359.5
			z"/>
		<polygon class="st1" points="970,573.4 968.7,573.4 964.5,571.1 967.5,570.4 969.1,571.4 970.2,572.4 		"/>
		<polygon class="st1" points="981.8,573.1 979.1,573.7 978.7,573.4 979,572.3 980.4,570.3 983.5,569.1 983.8,569.7 983.8,570.7 		
			"/>
		<polygon class="st1" points="961.1,566.5 962.2,567.4 964.2,567.1 964.9,568.5 961.3,569.1 959,569.6 957.3,569.6 958.3,567.7 
			960.1,567.7 		"/>
		<polygon class="st1" points="976.9,566.5 976.5,568.3 971.7,569.2 967.5,568.8 967.5,567.6 970,567 972,567.9 974.1,567.7 		"/>
		<polygon class="st1" points="931.7,562.3 937.7,562.7 938.4,561.4 944.3,562.9 945.5,564.9 950.2,565.5 954.1,567.4 950.5,568.6 
			947,567.3 944.2,567.3 940.9,567.1 937.9,566.5 934.2,565.3 931.9,565 930.6,565.4 924.8,564.1 924.3,562.7 921.4,562.5 
			923.6,559.5 927.4,559.6 930,560.9 931.3,561.1 		"/>
		<polygon class="st1" points="1014.4,560.6 1012.8,562.7 1012.5,560.4 1013,559.3 1013.7,558.2 1014.4,559.1 		"/>
		<polygon class="st1" points="990.7,551.8 989.5,552.9 987.2,552.3 986.6,551 989.8,550.8 		"/>
		<polygon class="st1" points="1000.9,550.7 1002.1,553 999.4,551.7 996.8,551.5 995,551.7 992.7,551.7 993.6,549.9 997.5,549.7 		
			"/>
		<polygon class="st0" points="1012.5,544.6 1013.3,549.7 1016.6,551.6 1019.3,548.2 1022.9,546.3 1025.9,546.3 1028.6,547.4 
			1030.9,548.6 1034.3,549.2 1034.3,559.5 1034.3,569.8 1031.5,567.2 1028.3,566.6 1027.5,567.5 1023.5,567.5 1024.8,564.9 
			1026.8,564 1026,560.6 1024.5,557.9 1018.3,555.2 1015.7,555 1011.1,552.2 1010.1,553.7 1008.9,554 1008.2,552.9 1008.2,551.5 
			1005.9,550 1009.3,548.8 1011.6,548.8 1011.3,548 1006.7,548 1005.5,546.1 1002.6,545.6 1001.3,544 1005.6,543.2 1007.2,542.2 
			1012.3,543.5 		"/>
		<polygon class="st1" points="984.4,536.5 981.8,539.6 979.5,540.2 976.5,539.6 971.2,539.8 968.4,540.2 968,542.5 970.8,545.3 
			972.5,543.9 978.4,542.8 978.2,544.3 976.8,543.8 975.4,545.7 972.6,546.9 975.6,550.9 975,552 977.9,555.7 977.9,557.7 
			976.2,558.7 974.9,557.5 976.5,555 973.3,556.2 972.6,555.3 973,554.1 970.7,552.2 970.9,549.2 968.8,550.1 969.1,553.8 
			969.2,558.4 967.2,558.9 965.8,558 966.7,555.1 966.2,552 964.9,552 963.9,549.8 965.2,547.8 965.7,545.3 967.3,540.5 
			967.9,539.2 970.6,536.9 973.1,537.8 977.1,538.3 980.7,538.1 983.9,535.8 		"/>
		<polygon class="st1" points="995.3,537.4 995.1,540.1 993.5,539.8 993,541.7 994.3,543.4 993.4,543.8 992.2,541.8 991.2,537.8 
			991.8,535.3 992.9,534.1 993.1,535.8 995,536.1 		"/>
		<polygon class="st1" points="961,535.1 964.6,538 960.8,538.4 959.8,540.5 959.9,543.3 956.8,545.5 956.8,548.6 955.6,553.5 
			955.2,552.3 951.6,553.8 950.3,551.8 948,551.6 946.4,550.6 942.7,551.8 941.5,550.2 939.4,550.4 936.8,550 936.3,545.8 
			934.7,544.9 933.2,542.2 932.8,539.5 933.2,536.6 935,534.5 935.6,536.6 937.7,538.3 939.8,537.7 941.8,537.9 943.7,536.3 
			945.2,536 948.2,536.9 950.8,536.3 952.4,531.9 953.6,530.8 954.7,527.2 958.4,527.2 961.1,527.7 959.3,530.6 961.6,533.5 		"/>
		<polygon class="st1" points="922.8,559.3 919.3,559.3 916.7,556.8 912.6,554.2 911.2,552.3 908.9,549.7 907.4,547.4 905.1,543 
			902.3,540.4 901.3,537.7 900.2,535.3 897.3,533.3 895.7,530.6 893.4,528.8 889.8,525.3 889.5,523.7 891.6,523.8 896.5,524.4 
			899.3,527.5 901.7,529.6 903.5,530.9 906.5,534.3 909.7,534.3 912.4,536.5 914.2,539.1 916.5,540.6 915.2,543.1 917.1,544.2 
			918.2,544.2 918.8,546.5 919.9,548.3 922.2,548.6 923.7,550.6 922.9,554.5 		"/>
		<path class="st0" d="M652.6,395.3l-0.4,1.4l0.5,1.8l1.3,1v1.1l-1,0.6l-0.2,1.3l-1.5,2l-0.6-0.3v-0.9L649,402l-0.3-2l0.3-2.9
			l0.4-1.3l-0.5-0.7l-0.2-1.3l1.4-2.1l0.2,0.8l0.9-0.4l0.7,1.2l0.8,0.4L652.6,395.3z"/>
	</g>
</g>
</svg>
